<svg xmlns="http://www.w3.org/2000/svg" width="123" height="20" viewBox="0 0 123 20"><defs><clipPath id="7b7la"><path d="M115.06 1.06h7.84v11.747h-7.84z"/></clipPath><clipPath id="7b7lb"><path d="M84.34.34h9.294v11.613H84.34z"/></clipPath><clipPath id="7b7lc"><path d="M57.04.34h9.652v11.613H57.04z"/></clipPath></defs><g><g><g><path fill="#fefefe" d="M97.717 15.785C93.875 18.536 88.307 20 83.51 20c-6.722 0-12.774-2.412-17.355-6.426-.36-.316-.038-.746.394-.502 4.942 2.791 11.053 4.472 17.365 4.472 4.258 0 8.938-.857 13.245-2.63.649-.268 1.194.415.558.87"/></g><g><path fill="#fefefe" d="M100.113 14.606c-.523-.582-3.457-.276-4.774-.138-.4.041-.462-.262-.102-.482 2.34-1.43 6.174-1.017 6.62-.539.45.483-.118 3.83-2.31 5.426-.338.245-.659.114-.51-.21.494-1.072 1.6-3.474 1.076-4.057"/></g><g><path fill="#fefefe" d="M95.38 2.884V1.38a.37.37 0 0 1 .377-.38L102.415 1c.213 0 .384.157.384.379v1.288c-.002.217-.182.499-.5.947l-3.45 4.981c1.28-.03 2.634.164 3.798.825.262.15.332.37.353.587v1.603c0 .221-.24.477-.49.343-2.05-1.086-4.77-1.204-7.036.014-.232.125-.474-.128-.474-.349v-1.524c0-.244.005-.661.248-1.033l3.996-5.798h-3.48a.372.372 0 0 1-.384-.38"/></g><g><path fill="#fefefe" d="M70.45 13h-2.078a.397.397 0 0 1-.372-.363l.002-11.009c0-.22.179-.396.4-.396h1.936a.397.397 0 0 1 .378.37v1.437h.04C71.26 1.649 72.21 1 73.49 1c1.299 0 2.114.649 2.696 2.039C76.692 1.649 77.837 1 79.06 1c.873 0 1.823.37 2.405 1.205.66.927.525 2.27.525 3.451l-.002 6.948c0 .22-.18.396-.402.396H79.51a.396.396 0 0 1-.373-.395V6.768c0-.463.038-1.621-.059-2.061-.155-.742-.62-.95-1.222-.95-.504 0-1.029.347-1.242.903-.213.556-.194 1.483-.194 2.108v5.836c0 .22-.18.396-.4.396h-2.077a.397.397 0 0 1-.373-.395l-.002-5.837c0-1.228.194-3.034-1.28-3.034-1.494 0-1.436 1.76-1.436 3.034v5.836c0 .22-.18.396-.402.396"/></g><g><path fill="#fefefe" d="M108.464 1C111.408 1 113 3.682 113 7.09c0 3.296-1.759 5.91-4.536 5.91-2.89 0-4.464-2.683-4.464-6.023zm.012 2.205c-1.458 0-1.55 2.112-1.55 3.431 0 1.318-.018 4.136 1.533 4.136 1.532 0 1.605-2.273 1.605-3.658 0-.91-.037-2-.295-2.864z"/></g><g><g/><g clip-path="url(#7b7la)"><path fill="#fefefe" d="M117.308 12.807h-1.902a.378.378 0 0 1-.343-.387l-.003-10.78a.375.375 0 0 1 .367-.353h1.77c.167.01.305.134.34.301v1.649h.036c.534-1.474 1.282-2.177 2.6-2.177.856 0 1.694.34 2.228 1.27.5.862.5 2.313.5 3.356v6.782a.374.374 0 0 1-.366.34h-1.914a.375.375 0 0 1-.34-.34V6.616c0-1.179.125-2.903-1.193-2.903-.464 0-.892.34-1.105.862-.268.658-.304 1.315-.304 2.041v5.803a.383.383 0 0 1-.371.388"/></g></g><g><g/><g clip-path="url(#7b7lb)"><path fill="#fefefe" d="M90.07 6.833c0 .79.017 1.449-.364 2.152-.31.57-.801.921-1.346.921-.746 0-1.183-.593-1.183-1.47 0-1.728 1.486-2.042 2.893-2.042zm1.964 4.955a88.806 88.806 0 0 1 1.491-1.35c.158-.135.13-.355.006-.54-.355-.513-.734-.93-.734-1.883V4.85c0-1.342.092-2.575-.854-3.498C91.197.604 89.96.34 89.014.34c-1.85 0-3.914.722-4.348 3.111-.045.254.131.388.29.425l1.885.214c.176-.01.304-.191.338-.374.162-.823.821-1.22 1.562-1.22.4 0 .855.153 1.092.528.273.418.237.99.237 1.473v.264c-1.129.132-2.602.22-3.657.705-1.218.55-2.073 1.671-2.073 3.32 0 2.112 1.273 3.168 2.91 3.168 1.383 0 2.139-.341 3.206-1.477.353.534.468.793 1.114 1.354.145.081.33.073.46-.048z"/></g></g><g><g/><g clip-path="url(#7b7lc)"><path fill="#fefefe" d="M62.99 6.833c0 .79.018 1.449-.378 2.152-.32.57-.831.921-1.398.921-.774 0-1.227-.593-1.227-1.47 0-1.728 1.542-2.042 3.003-2.042zm2.04 4.955a89.644 89.644 0 0 1 1.548-1.35c.165-.135.135-.355.007-.54-.37-.513-.762-.93-.762-1.883V4.85c0-1.342.094-2.575-.888-3.498C64.161.604 62.877.34 61.895.34c-1.923 0-4.066.722-4.516 3.111-.047.254.136.388.301.425l1.957.214c.183-.01.316-.191.351-.374.168-.823.853-1.22 1.623-1.22.415 0 .887.153 1.133.528.284.418.246.99.246 1.473v.264c-1.171.132-2.701.22-3.797.705-1.265.55-2.153 1.671-2.153 3.32 0 2.112 1.322 3.168 3.022 3.168 1.436 0 2.22-.341 3.33-1.477.365.534.485.793 1.156 1.354.15.081.344.073.477-.048z"/></g></g><g><path fill="#fefefe" d="M1.515 11c-.46 0-.828-.152-1.102-.454C.137 10.243 0 9.838 0 9.329c0-.545.168-.982.505-1.307.336-.325.79-.487 1.359-.487.362 0 .77.063 1.224.19v-.74c0-.404-.08-.688-.239-.852-.158-.165-.428-.247-.81-.247-.447 0-.884.074-1.311.224-.149.052-.243.079-.282.079-.077 0-.116-.067-.116-.202v-.303c0-.097.013-.168.039-.213a.345.345 0 0 1 .155-.123c.2-.105.455-.19.762-.253C1.594 5.032 1.9 5 2.204 5c.615 0 1.068.148 1.359.443.292.295.437.746.437 1.351v3.836c0 .15-.065.224-.194.224h-.418c-.123 0-.194-.07-.213-.213l-.049-.37c-.233.232-.49.411-.772.539zm.233-.84c.213 0 .436-.05.67-.147.232-.097.456-.239.67-.426V8.443a3.821 3.821 0 0 0-1.03-.146c-.731 0-1.097.325-1.097.976 0 .284.068.503.204.656z"/></g><g><path fill="#fefefe" d="M7.243 10a.433.433 0 0 1-.211-.04c-.045-.026-.091-.101-.14-.226l-1.82-4.379a1.83 1.83 0 0 0-.046-.118A.28.28 0 0 1 5 5.128C5 5.043 5.051 5 5.155 5h.606c.103 0 .175.013.217.04.04.026.085.102.133.226l1.41 3.846L8.93 5.266c.048-.124.092-.2.134-.227A.428.428 0 0 1 9.279 5h.566c.103 0 .155.043.155.128 0 .033-.009.07-.026.109-.017.04-.032.079-.046.118l-1.81 4.379c-.049.125-.095.2-.14.227a.435.435 0 0 1-.21.039z"/></g><g><path fill="#fefefe" d="M11.515 11c-.46 0-.828-.152-1.102-.454-.276-.303-.413-.708-.413-1.217 0-.545.168-.982.505-1.307.336-.325.79-.487 1.359-.487.362 0 .77.063 1.224.19v-.74c0-.404-.08-.688-.239-.852-.158-.165-.428-.247-.81-.247-.447 0-.884.074-1.311.224-.149.052-.243.079-.282.079-.077 0-.116-.067-.116-.202v-.303c0-.097.013-.168.039-.213a.345.345 0 0 1 .155-.123c.2-.105.455-.19.762-.253.308-.063.613-.095.918-.095.615 0 1.068.148 1.359.443.292.295.437.746.437 1.351v3.836c0 .15-.065.224-.194.224h-.418c-.123 0-.194-.07-.213-.213l-.049-.37c-.233.232-.49.411-.772.539zm.233-.84c.213 0 .436-.05.67-.147.232-.097.456-.239.67-.426V8.443a3.821 3.821 0 0 0-1.03-.146c-.731 0-1.097.325-1.097.976 0 .284.068.503.204.656z"/></g><g><path fill="#fefefe" d="M16.5 4.339a.428.428 0 0 0 .367-.184A.81.81 0 0 0 17 3.67c0-.201-.044-.363-.133-.486A.428.428 0 0 0 16.5 3a.428.428 0 0 0-.367.184c-.089.123-.133.285-.133.486 0 .2.044.362.133.485.089.122.21.184.367.184zM16.734 11c.107 0 .161-.074.161-.223v-5.21c0-.15-.054-.224-.161-.224h-.476c-.108 0-.161.074-.161.223v5.21c0 .15.053.224.161.224z"/></g><g><path fill="#fefefe" d="M20.204 10c-.39 0-.688-.109-.895-.328-.206-.218-.309-.531-.309-.939V2.215c0-.143.074-.215.221-.215h.652c.147 0 .221.072.221.215v6.454c0 .164.035.284.105.36.07.074.186.112.348.112a.95.95 0 0 0 .138-.01.843.843 0 0 1 .127-.011c.074 0 .124.018.15.053.025.036.038.09.038.161v.344a.251.251 0 0 1-.05.166.33.33 0 0 1-.171.092 2.53 2.53 0 0 1-.575.064"/></g><g><path fill="#fefefe" d="M22.515 11c-.46 0-.828-.152-1.102-.454-.276-.303-.413-.708-.413-1.217 0-.545.168-.982.505-1.307.336-.325.79-.487 1.359-.487.362 0 .77.063 1.224.19v-.74c0-.404-.08-.688-.239-.852-.158-.165-.428-.247-.81-.247-.447 0-.884.074-1.311.224-.149.052-.243.079-.282.079-.077 0-.116-.067-.116-.202v-.303c0-.097.013-.168.039-.213a.345.345 0 0 1 .155-.123c.2-.105.455-.19.762-.253.308-.063.613-.095.918-.095.615 0 1.068.148 1.359.443.292.295.437.746.437 1.351v3.836c0 .15-.065.224-.194.224h-.418c-.123 0-.194-.07-.213-.213l-.049-.37c-.233.232-.49.411-.772.539zm.233-.84c.213 0 .436-.05.67-.147.232-.097.456-.239.67-.426V8.443a3.821 3.821 0 0 0-1.03-.146c-.731 0-1.097.325-1.097.976 0 .284.068.503.204.656z"/></g><g><path fill="#fefefe" d="M29.702 11a2.438 2.438 0 0 1-1.713-.682l-.074.351c-.021.143-.103.214-.245.214h-.457c-.142 0-.213-.071-.213-.214V3.213c0-.142.07-.213.213-.213h.627c.142 0 .213.071.213.213v2.78c.532-.447 1.106-.67 1.724-.67.688 0 1.23.248 1.627.745S32 7.247 32 8.113c0 .873-.21 1.573-.628 2.099zm-.24-.842c.982 0 1.474-.662 1.474-1.986 0-.677-.12-1.179-.358-1.506-.238-.328-.603-.491-1.094-.491-.506 0-.982.163-1.43.49v2.98z"/></g><g><path fill="#fefefe" d="M33.204 10c-.39 0-.688-.109-.895-.328-.206-.218-.309-.531-.309-.939V2.215c0-.143.074-.215.221-.215h.652c.147 0 .221.072.221.215v6.454c0 .164.035.284.105.36.07.074.186.112.348.112a.95.95 0 0 0 .138-.01.843.843 0 0 1 .127-.011c.074 0 .124.018.15.053.025.036.038.09.038.161v.344a.251.251 0 0 1-.05.166.33.33 0 0 1-.171.092 2.53 2.53 0 0 1-.575.064"/></g><g><path fill="#fefefe" d="M35.578 10.24C35.192 9.734 35 8.985 35 7.994c0-.946.192-1.681.578-2.206.385-.525.923-.788 1.614-.788.582 0 1.028.2 1.34.598.312.398.468.962.468 1.692 0 .24-.015.481-.046.727-.012.09-.032.149-.06.178-.027.03-.072.045-.133.045h-2.88c.012.641.142 1.114.39 1.419.247.305.631.458 1.151.458.184 0 .36-.015.528-.045.168-.03.38-.093.637-.19.043-.014.08-.028.11-.039a.244.244 0 0 1 .083-.016c.08 0 .12.067.12.2v.314a.421.421 0 0 1-.038.206.413.413 0 0 1-.156.129 2.774 2.774 0 0 1-.655.235c-.254.059-.51.089-.767.089-.752 0-1.32-.253-1.706-.76zm2.587-2.737c.006-.06.01-.157.01-.291 0-.454-.088-.797-.262-1.027-.175-.231-.43-.347-.766-.347-.386 0-.685.14-.9.419-.214.279-.336.695-.366 1.246z"/></g><g><path fill="#fefefe" d="M44.515 11c-.46 0-.828-.152-1.102-.454-.276-.303-.413-.708-.413-1.217 0-.545.168-.982.505-1.307.336-.325.79-.487 1.359-.487.362 0 .77.063 1.224.19v-.74c0-.404-.08-.688-.239-.852-.158-.165-.428-.247-.81-.247-.447 0-.884.074-1.311.224-.149.052-.243.079-.282.079-.077 0-.116-.067-.116-.202v-.303c0-.097.013-.168.039-.213a.345.345 0 0 1 .155-.123c.2-.105.455-.19.762-.253.308-.063.613-.095.918-.095.615 0 1.068.148 1.359.443.292.295.437.746.437 1.351v3.836c0 .15-.065.224-.194.224h-.418c-.123 0-.194-.07-.213-.213l-.049-.37c-.233.232-.49.411-.772.539zm.233-.84c.213 0 .436-.05.67-.147.232-.097.456-.239.67-.426V8.443a3.821 3.821 0 0 0-1.03-.146c-.731 0-1.097.325-1.097.976 0 .284.068.503.204.656z"/></g><g><path fill="#fefefe" d="M50.035 10c-.824 0-1.235-.505-1.235-1.515V5.348h-.626c-.116 0-.174-.072-.174-.213v-.268a.27.27 0 0 1 .039-.16c.026-.035.077-.06.152-.075l.635-.095.113-1.324c.012-.141.073-.213.183-.213h.365c.116 0 .174.072.174.213v1.302h1.13c.116 0 .174.072.174.214v.406c0 .141-.058.213-.174.213h-1.13V8.43c0 .264.048.449.144.556.095.106.259.16.49.16.11 0 .247-.019.41-.054a.929.929 0 0 1 .173-.032c.047 0 .079.016.096.048a.343.343 0 0 1 .026.155v.288a.483.483 0 0 1-.035.208c-.023.046-.07.083-.139.112-.226.085-.49.128-.791.128"/></g></g></g></svg>