<svg xmlns="http://www.w3.org/2000/svg" width="172" height="51" viewBox="0 0 172 51"><defs><clipPath id="cbrka"><path d="M149.5.62h22.282v28.978H149.5z"/></clipPath></defs><g><g><g><path fill="#f49c10" d="M107.258 40.162C97.173 47.239 82.555 51 69.964 51c-17.642 0-33.533-6.202-45.556-16.524-.945-.81-.1-1.918 1.036-1.292 12.971 7.18 29.01 11.501 45.58 11.501 11.178 0 23.463-2.205 34.767-6.763 1.704-.687 3.135 1.067 1.467 2.24"/></g><g><path fill="#f49c10" d="M110.416 36.551c-1.27-1.65-8.393-.78-11.592-.391-.97.118-1.123-.74-.248-1.366 5.685-4.054 14.998-2.882 16.077-1.527 1.09 1.369-.286 10.85-5.61 15.374-.821.693-1.6.323-1.236-.597 1.2-3.037 3.88-9.84 2.61-11.493"/></g><g><path fill="#fefefe" d="M98.997 4.968V1.005C99 .401 99.445 0 99.987 0h17.479c.559 0 1.007.412 1.007 1.001v3.395c-.003.572-.477 1.316-1.313 2.495l-9.055 13.135c3.356-.083 6.916.43 9.97 2.173.687.394.872.976.925 1.547v4.227c0 .582-.626 1.254-1.288.904-5.379-2.864-12.519-3.175-18.47.036-.608.329-1.242-.337-1.242-.919v-4.016c0-.644.01-1.747.651-2.726l10.49-15.287h-9.134c-.558 0-1.007-.404-1.01-.997"/></g><g><path fill="#fefefe" d="M35.3 30h-5.345c-.508-.032-.916-.416-.955-.908l.004-27.52c0-.553.461-.99 1.03-.99h4.976c.522.025.94.42.973.925V5.1h.1C37.382 1.622 39.825 0 43.12 0c3.34 0 5.437 1.622 6.933 5.1C51.35 1.622 54.295 0 57.436 0c2.247 0 4.694.926 6.189 3.011C65.32 5.33 64.97 8.69 64.97 11.643l-.004 17.366c0 .55-.457.991-1.03.991H58.6c-.537-.036-.959-.46-.959-.987l-.004-14.593c0-1.155.1-4.052-.15-5.153-.397-1.852-1.595-2.373-3.14-2.373-1.3 0-2.648.865-3.195 2.258-.548 1.389-.497 3.704-.497 5.268v14.59c0 .549-.462.99-1.034.99h-5.338c-.536-.036-.958-.46-.958-.987l-.008-14.593c0-3.068.501-7.587-3.29-7.587-3.843 0-3.692 4.4-3.692 7.587v14.59c0 .549-.466.99-1.034.99"/></g><g><path fill="#fefefe" d="M133.9 0c7.854 0 12.1 6.704 12.1 15.225C146 23.465 141.312 30 133.9 30c-7.7 0-11.9-6.708-11.9-15.056zm.05 5.51c-3.902 0-4.146 5.282-4.146 8.582 0 3.295-.05 10.341 4.097 10.341 4.1 0 4.298-5.683 4.298-9.148 0-2.274-.099-5.003-.793-7.162z"/></g><g><g/><g clip-path="url(#cbrka)"><path fill="#fefefe" d="M155.888 29.598h-5.407c-.545-.035-.974-.444-.974-.953L149.5 2.048c.044-.485.494-.866 1.042-.866h5.034c.472.024.86.329.962.745V5.99h.102c1.518-3.637 3.646-5.37 7.394-5.37 2.433 0 4.811.839 6.333 3.134 1.416 2.125 1.416 5.706 1.416 8.278v16.73c-.061.472-.504.836-1.038.836h-5.44c-.502-.031-.908-.385-.966-.836V14.327c0-2.908.356-7.162-3.392-7.162-1.319 0-2.535.839-3.142 2.125-.759 1.623-.86 3.245-.86 5.037v14.314c-.011.53-.48.957-1.057.957"/></g></g><g><path fill="#fefefe" d="M85.412 16.762c0 2.045.049 3.749-.98 5.568-.83 1.476-2.153 2.386-3.62 2.386-2.005 0-3.181-1.532-3.181-3.805 0-4.472 3.997-5.284 7.78-5.284zm5.281 12.81a250.103 250.103 0 0 1 4.012-3.486c.427-.351.353-.917.017-1.395-.955-1.324-1.974-2.403-1.974-4.865V11.65c0-3.468.249-6.65-2.3-9.036C88.443.682 85.118 0 82.573 0c-4.977 0-10.529 1.866-11.694 8.038-.123.657.35.998.78 1.097l5.068.551c.473-.024.82-.492.907-.966.438-2.126 2.209-3.151 4.207-3.151 1.075 0 2.296.397 2.934 1.363.735 1.082.637 2.557.637 3.808v.678c-3.035.345-6.997.573-9.836 1.82C72.3 14.661 70 17.556 70 21.818 70 27.274 73.423 30 77.827 30c3.72 0 5.754-.878 8.624-3.815.949 1.38 1.26 2.048 2.996 3.499.389.21.89.19 1.236-.123z"/></g><g><path fill="#fefefe" d="M15.412 16.762c0 2.045.05 3.749-.98 5.568-.83 1.476-2.153 2.386-3.62 2.386-2.005 0-3.181-1.532-3.181-3.805 0-4.472 3.997-5.284 7.781-5.284zm5.282 12.81a250.072 250.072 0 0 1 4.012-3.486c.427-.351.35-.917.017-1.395-.955-1.324-1.974-2.403-1.974-4.865V11.65c0-3.468.245-6.65-2.296-9.036C18.443.682 15.118 0 12.573 0 7.597 0 2.042 1.866.88 8.038c-.123.657.35.998.78 1.097l5.069.551c.472-.024.819-.492.906-.966.434-2.126 2.213-3.151 4.208-3.151 1.075 0 2.296.397 2.933 1.363.732 1.082.637 2.557.637 3.808v.678c-3.035.345-6.997.573-9.832 1.82C2.3 14.661 0 17.556 0 21.818 0 27.274 3.423 30 7.827 30c3.72 0 5.751-.878 8.625-3.815.949 1.38 1.257 2.048 2.996 3.499.389.21.89.19 1.236-.123z"/></g></g></g></svg>