<svg xmlns="http://www.w3.org/2000/svg" width="34" height="21" viewBox="0 0 34 21"><defs><clipPath id="y35ca"><path d="M0 0h33.887v20.185H0z"/></clipPath></defs><g><g><g/><g clip-path="url(#y35ca)"><path fill="#fff" d="M33.863.354a.446.446 0 0 1 0 .288v.001a.492.492 0 0 1-.032.075c-.008.013-.015.026-.024.038L21.083 19.937a.582.582 0 0 1-.49.248.61.61 0 0 1-.421-.163l-6.376-6.152-6.026 1.671a.64.64 0 0 1-.299.011.63.63 0 0 1-.195-.079l-.022-.018a.498.498 0 0 1-.193-.235l-.005-.005c-.005-.015 0-.029-.005-.044-.008-.035-.02-.069-.02-.106V7.122L.158.847A.456.456 0 0 1 .045.305.574.574 0 0 1 .568 0h32.74c.078 0 .152.012.22.035h.002v.001h.002c.025.009.049.02.073.032a.52.52 0 0 1 .236.235c.001 0 .005-.006.001.002.007.016.014.031.02.048v.001zM1.904 1l5.867 5.359L29.233 1zm24.758 1.679L8.167 7.299v5.589L9.934 9.68c.012-.02.03-.031.043-.049a.476.476 0 0 1 .184-.156c.016-.008.028-.024.045-.03zm-13.71 10.378l-2.36-2.277-1.907 3.46zM31.913 1.63l-20.524 8.433 9.103 8.782z"/></g></g></g></svg>