<svg xmlns="http://www.w3.org/2000/svg" width="18" height="12" viewBox="0 0 18 12"><defs><clipPath id="ogp1a"><path d="M.06 0h17.906v11.297H.06z"/></clipPath></defs><g><g><g/><g clip-path="url(#ogp1a)"><path fill="#fff" d="M17.808 5.268a.537.537 0 0 1 .001.761l-2.556 2.557-2.555 2.554a.537.537 0 0 1-.917-.38V6.188l-3.075-.002H.598a.535.535 0 0 1-.538-.538c0-.296.242-.537.537-.537l8.109-.002 3.074.003V.538a.557.557 0 0 1 .157-.381.54.54 0 0 1 .761.001zm-1.14.381L14.49 3.475l-1.642-1.637v3.811l.003 3.613v.197z"/></g></g></g></svg>