<svg xmlns="http://www.w3.org/2000/svg" width="31" height="28" viewBox="0 0 31 28"><g><g><g><path fill="#fff" d="M23.333 0c4.09 0 7.417 3.327 7.417 7.417v20.679H20.198c-2.142 0-3.982-1.279-4.825-3.108-.847 1.829-2.688 3.108-4.833 3.108H0V7.417C0 3.327 3.327 0 7.417 0h6.089a2.36 2.36 0 0 1 1.869.93A2.36 2.36 0 0 1 17.244 0zm-8.458 2.368A1.37 1.37 0 0 0 13.506 1H7.417A6.424 6.424 0 0 0 1 7.417v19.679h9.54a4.34 4.34 0 0 0 4.335-4.335zM29.74 7.417C29.74 3.879 26.864 1 23.328 1h-6.085a1.37 1.37 0 0 0-1.368 1.368v20.405a4.326 4.326 0 0 0 4.32 4.323h9.545z"/></g><g><path fill="#fff" d="M12.935 6.13H3.82a.5.5 0 1 0 0 1h9.115a.5.5 0 0 0 0-1"/></g><g><path fill="#fff" d="M12.935 8.95H3.82a.5.5 0 1 0 0 1h9.115a.5.5 0 0 0 0-1"/></g><g><path fill="#fff" d="M12.935 11.76H3.82a.5.5 0 1 0 0 1h9.115a.5.5 0 0 0 0-1"/></g><g><path fill="#fff" d="M12.935 14.57H3.82a.5.5 0 1 0 0 1h9.115a.5.5 0 0 0 0-1"/></g><g><path fill="#fff" d="M26.635 6.13H17.52a.5.5 0 1 0 0 1h9.115a.5.5 0 0 0 0-1"/></g><g><path fill="#fff" d="M26.635 8.95H17.52a.5.5 0 1 0 0 1h9.115a.5.5 0 0 0 0-1"/></g><g><path fill="#fff" d="M26.635 11.76H17.52a.5.5 0 1 0 0 1h9.115a.5.5 0 0 0 0-1"/></g><g><path fill="#fff" d="M26.635 14.57H17.52a.5.5 0 1 0 0 1h9.115a.5.5 0 0 0 0-1"/></g></g></g></svg>