<svg xmlns="http://www.w3.org/2000/svg" width="23" height="23" viewBox="0 0 23 23"><g><g><g><path fill="#fff" d="M18.611 22.757H4.152A4.154 4.154 0 0 1 0 18.607a.539.539 0 0 1 1.076 0 3.08 3.08 0 0 0 3.076 3.074h14.459a3.076 3.076 0 0 0 3.072-3.074.538.538 0 0 1 1.076 0 4.155 4.155 0 0 1-4.148 4.15"/></g><g><path fill="#32c5ff" d="M11.38 19.15a.528.528 0 0 1-.377-.159l-3.615-3.613a.535.535 0 0 1 0-.76.535.535 0 0 1 .76 0l3.232 3.232 3.232-3.232a.538.538 0 1 1 .762.76l-3.61 3.613a.545.545 0 0 1-.384.158"/></g><g><path fill="#32c5ff" d="M11.377 19.146a.54.54 0 0 1-.537-.539V.539a.539.539 0 0 1 1.076 0v18.068c0 .297-.24.539-.539.539"/></g></g></g></svg>