<?xml version="1.0" encoding="UTF-8"?>
										<svg id="SVGDoc" width="20" height="30" xmlns="http://www.w3.org/2000/svg" version="1.1" xmlns:xlink="http://www.w3.org/1999/xlink" xmlns:avocode="https://avocode.com/" viewBox="0 0 20 30"><defs></defs><desc>Generated with Avocode.</desc><g><g clip-path="url(#clip-070A1CD8-670D-4397-316E-2754A65FEE6B)"><title>Fill 1</title><path d="M19.14725,0.51c0.006,0.145 0.139,3.432 -1.785,5.609l1.76,5.088c0.045,0.137 0.037,0.287 -0.028,0.416l-9.037,18.073c-0.019,0.037 -0.054,0.056 -0.078,0.086c-0.023,0.027 -0.039,0.05 -0.066,0.072c-0.096,0.082 -0.207,0.14 -0.338,0.14c-0.129,0 -0.24,-0.058 -0.336,-0.14c-0.027,-0.022 -0.043,-0.045 -0.066,-0.072c-0.024,-0.03 -0.059,-0.049 -0.079,-0.086l-9.033,-18.073c-0.066,-0.129 -0.074,-0.277 -0.029,-0.412l1.74,-5.113c-1.904,-2.178 -1.773,-5.443 -1.769,-5.588c0.017,-0.287 0.252,-0.51 0.539,-0.51h18.066c0.285,0 0.522,0.223 0.539,0.51zM1.08325,1.07601c0.039,0.94184 0.273,2.98417 1.521,4.36701h13.94c1.252,-1.38284 1.484,-3.42516 1.525,-4.36701zM9.58023,16.268c0.33468,0 0.64744,-0.133 0.8865,-0.373c0.23806,-0.237 0.36755,-0.557 0.36755,-0.893c0,-0.701 -0.56576,-1.273 -1.264,-1.273c-0.69625,0 -1.26301,0.572 -1.26301,1.273c0,0.697 0.56278,1.266 1.25504,1.266zM18.03025,11.346l-1.664,-4.818h-13.606l-1.634,4.816l7.912,15.834v-9.943c-1.028,-0.248 -1.807,-1.131 -1.807,-2.233c0,-1.295 1.053,-2.349 2.344,-2.349c1.293,0 2.346,1.054 2.346,2.349c0,0.623 -0.245,1.213 -0.686,1.655c-0.31,0.312 -0.705,0.482 -1.121,0.582v9.939z" fill="#32c5ff" fill-opacity="1"></path></g></g></svg>