<svg xmlns="http://www.w3.org/2000/svg" width="80" height="80" viewBox="0 0 80 80"><defs><clipPath id="u4nca"><path d="M0 0h80v80H0z"/></clipPath></defs><g><g><g><g/><g clip-path="url(#u4nca)"><path fill="#1da1f2" d="M40 0c22.091 0 40 17.909 40 40S62.091 80 40 80 0 62.091 0 40 17.909 0 40 0"/></g></g><g><path fill="#fff" d="M32.746 61c17.748 0 27.452-14.623 27.452-27.296 0-.418 0-.836-.02-1.234A19.705 19.705 0 0 0 65 27.496a19.67 19.67 0 0 1-5.542 1.512 9.598 9.598 0 0 0 4.241-5.312 19.605 19.605 0 0 1-6.122 2.328A9.627 9.627 0 0 0 50.534 23c-5.322 0-9.644 4.297-9.644 9.59 0 .756.08 1.492.26 2.188-8.024-.398-15.127-4.218-19.889-10.027a9.582 9.582 0 0 0-1.3 4.814c0 3.323 1.7 6.267 4.302 7.978A9.519 9.519 0 0 1 19.9 36.35v.12c0 4.655 3.321 8.514 7.743 9.41a9.67 9.67 0 0 1-2.541.338c-.62 0-1.22-.06-1.82-.18 1.22 3.82 4.781 6.586 9.003 6.666a19.465 19.465 0 0 1-11.985 4.098c-.78 0-1.54-.04-2.301-.14C22.222 59.409 27.304 61 32.746 61"/></g></g></g></svg>