<svg xmlns="http://www.w3.org/2000/svg" width="30" height="30" viewBox="0 0 30 30"><defs><clipPath id="f4s2a"><path d="M0 .21h29.789v29.608H0z"/></clipPath></defs><g><g><g><g/><g clip-path="url(#f4s2a)"><path fill="#898f9c" d="M29.789 15.104C29.789 6.878 23.12.21 14.894.21 6.668.21 0 6.878 0 15.104c0 7.435 5.447 13.597 12.567 14.714V19.41H8.785v-4.306h3.782v-3.281c0-3.733 2.224-5.795 5.626-5.795 1.63 0 3.334.291 3.334.291v3.665H19.65c-1.85 0-2.427 1.149-2.427 2.327v2.793h4.13l-.66 4.306h-3.47v10.408c7.12-1.117 12.567-7.28 12.567-14.714"/></g></g><g><path fill="#fefefe" d="M21.148 19.398l.674-4.31h-4.215V12.29c0-1.18.589-2.329 2.477-2.329H22v-3.67S20.261 6 18.598 6c-3.47 0-5.74 2.065-5.74 5.802v3.285H9v4.311h3.858v10.42a15.61 15.61 0 0 0 4.75 0v-10.42z"/></g></g></g></svg>