<svg xmlns="http://www.w3.org/2000/svg" width="351" height="313" viewBox="0 0 351 313"><g><g opacity=".23"><g opacity=".23"><path fill="#000" d="M20.295 59.17s22.46 24.124 29.115 25.788c6.655 1.664-12.478-2.219-18.855-1.941-6.378.277-9.705 3.882-10.26 8.319-.555 4.436 2.218 16.914 13.31 18.578 11.091 1.663 24.678-9.151 24.678-9.151s13.881-6.808 28.577-2.094c14.696 4.713 33.535 27.05 28.821 39.805-6.297 17.039-16.082 31.333-40.484 32.165-24.4.832-34.383-6.1-40.76-11.368-6.378-5.269-3.882-16.083.277-17.747 4.16-1.664 13.31-4.991 18.023-4.159 4.714.832 12.201 4.159 12.201 7.487 0 3.327-9.428 6.932-12.478 6.932-3.05 0-3.604-4.159-3.604-4.159s2.218 1.386 6.1-.278c3.881-1.664 4.436-4.436.554-4.714-3.882-.277-9.982 2.219-10.537 5.546-.554 3.327.278 10.26 12.201 10.814 11.923.554 29.06-3.662 31.888-14.973 2.773-11.092-5.823-31.057-15.25-34.661-8.353-3.194-16.65-5.511-24.956 3.882-7.712 8.721-9.736 11.326-21.639 11.759-30.5 1.109-28.475-31.616-19.954-37.269 5.193-3.446 13.032-4.714 14.418-8.874 1.387-4.159-1.386-19.687-1.386-19.687"/></g><g opacity=".23"><path fill="#000" d="M131.215 116.29s-6.932.555-8.041 3.328c-1.109 2.772-4.16 7.21-4.16 7.21s-2.772-10.26-6.377-15.529-39.929-47.416-51.852-50.466C48.861 57.783 31.67 53.07 31.67 53.07s8.873-1.94 11.646-5.546c2.773-3.604 5.822-14.973 9.427-19.41 3.605-4.436 13.865-14.14 26.897-12.2 13.033 1.941 36.047 9.451 41.038 18.451 4.992 9-1.573 27.578-4.253 29.52-2.679 1.94-11.275 6.1-11.275 6.1s1.109 6.932 4.16 14.141c3.05 7.21 11.128 27.451 13.189 28.283zM96.28 38.653s-8.32-11.096-18.304-7.49c-9.984 3.606-12.758 3.606-12.758 3.606s-4.071 3.246-1.109 6.381c0 0 13.59 14.426 17.334 18.032 3.744 3.607 8.736 10.542 14.837 2.774z"/></g><g opacity=".23"><path fill="#000" d="M181.399 119.89s-5.546.556-17.47-1.385c-11.923-1.941-16.914 0-16.914 0l6.932-4.991s6.378-5.823 7.21-12.478c.831-6.655 0-8.596 0-8.596l-18.579-.831s-3.604 7.209-5.822 11.09c-2.219 3.883 5.822 15.806 5.822 15.806s-7.209-3.882-14.973-11.091c-7.764-7.21-11.185-17.192-11.185-17.192s7.857 5.546 11.462 4.99c3.605-.554 6.655-9.202 6.655-9.202s2.219-22.962 1.941-26.844c-.277-3.882-4.159-24.956-6.655-28.726-2.495-3.771-1.386-17.858 1.387-21.74 2.773-3.882 14.419-7.764 20.519-8.596 6.1-.832 5.268 3.605 5.268 3.605s8.596 41.87 9.151 49.634c.554 7.764 5.268 49.08 6.378 54.902zm-24.956-64.33c-1.109-10.813-1.941-21.35-1.941-21.35s-.893-2.273-3.358-3.77c-2.465-1.498-4.129-3.44-4.129-3.44s-2.773-3.881-1.664 6.655c1.11 10.538 3.789 14.018 3.558 22.537-.23 8.52-3.558 29.818-3.558 29.818h6.932s.832.885 2.219-3.552c1.386-4.437 1.941-7.764 1.941-7.764z"/></g><g opacity=".23"><path fill="#000" d="M221.057 54.176s17.469.277 20.796 4.99c3.328 4.715 4.714 9.152 4.714 9.152s10.828-12.343 11.092-26.065c.197-10.26-2.231-17.011-13.587-21.906-16.083-6.932-32.051-.927-39.098 5.956-16.81 16.417-23.57 29.89-28.347 43.124-5.891 16.318-1.045 34.174 8.105 45.509 9.15 11.334 29.116 10.225 29.116 10.225s20.445-2.96 27.173-18.301c6.932-15.805 2.773-25.51 2.773-25.51s-1.663-2.496-3.882 0c-2.218 2.495-11.512 20.519-22.67 23.569-11.16 3.05-18.645-2.495-18.645-2.495s-8.873-19.814-3.882-31.183c4.99-11.37 8.04-26.215 27.728-36.198 18.222-9.24 17.743 1.032 17.192 3.605-3.328 15.528-18.578 15.528-18.578 15.528"/></g><g opacity=".23"><path fill="#000" d="M269.581 47.951s5.269-5.427 5.823 2.614c.554 8.042.832 12.502-4.159 20.67-4.992 8.168-13.033 17.319-15.251 25.914-2.218 8.596-5.823 17.061-9.705 22.811-3.882 5.75-7.209 12.959-17.469 14.623-10.259 1.663-25.51 1.663-25.51 1.663s.554 8.042 3.882 13.588c3.327 5.545 5.823 5.823 5.823 5.823s-3.882-4.714 4.436-9.428c8.319-4.714 6.932-5.823 16.36-6.932 9.428-1.109 36.325.277 39.098 1.386 2.772 1.109 15.25 1.664 21.35 3.882 6.101 2.219 19.688 8.596 23.292 14.142l3.605 5.545s-6.932-14.418-6.1-21.35c.832-6.932 6.1-31.056 6.1-31.056s.832 1.533-7.209 8.114c-8.042 6.582-18.856 9.909-26.62 6.859-7.764-3.05-18.301-14.141-18.301-18.301 0-4.159-2.495-13.587 2.219-18.301 4.713-4.714 13.586-16.914 20.242-17.469 6.655-.554 9.541-1.513 9.541-1.513s-7.878-6.528-11.205-12.074c-3.327-5.545-15.251-18.301-15.251-18.301z"/></g><g opacity=".23"><path fill="#000" d="M1.587 206.334c-.506-1.789-.954-3.004-.954-3.004s-1.931 1.825.954 3.004"/></g><g opacity=".23"><path fill="#000" d="M110.347 199.441c-4.897 3.051-11.275 5.824-16.543 6.655-5.269.832-20.242-.83-20.242-.83s13.31 6.376 15.528 14.14 4.991 15.251-3.328 24.956c-8.318 9.705-19.964 15.25-19.964 15.25s-18.024 2.496-27.729 0c-9.705-2.495-18.301-15.25-18.301-15.25s-2.772-11.369-1.663-16.083c1.109-4.714 0-9.15-2.773-8.873-2.773.278-8.041 4.16-8.041 4.16l-3.328 4.436s-3.05-4.437-1.386-9.705c1.078-3.414-.055-8.677-.987-11.969 1.75.714 5.272 1.192 12.078.878 18.023-.832 47.97-13.587 47.97-13.587l30.779-16.638s1.941-5.268 8.319-6.1c6.377-.832 17.191 1.11 17.469 7.764zm-38.726 11.092c-.555-.832-12.51-7.764-12.51-7.764L27.81 220.515s-3.605 18.301 4.436 22.183c8.041 3.882 10.814 6.1 17.469 6.932 6.655.832 18.024-9.705 20.519-14.557zM96.576 185.3c-1.941-1.664-5.545 1.387-5.545 1.387l-21.074 10.536h13.747s9.822-1.663 11.486-3.327z"/></g><g opacity=".23"><path fill="#000" d="M91.407 290.15c-1.668 8.723 9.627 11.462 11.72 11.177 9.817-1.34 13.83-21.064 16.51-24.544 2.681-3.48 15.504-39.95 15.504-39.95s6.712-29.968 13.408-30.89c6.696-.922 12.691-10.03 12.691-10.03l-5.457.545s-1.626 4.01-6.47 1.777c-4.843-2.234-15.173-3.338-15.173-3.338l3.794 8.884s-4.997 9.975-7.327 17.018c-2.817 8.515-13.817 37.75-21.903 52.414-3.547 6.435-8.7 6.917-8.7 6.917s13.378-55.912 14.185-58.905c7.875-29.2 21.493-30.611 16.016-29.2-5.476 1.41-11.98-11.163-9.675-9.624 2.306 1.54-10.145 28.398-10.145 28.398s-1.342 6.744-4.626 24.143c-4 21.194-8.21 33.474-8.21 33.474s-4.625 13.804-6.142 21.735"/></g><g opacity=".23"><path fill="#000" d="M141.92 293.855s3.512-6.495 6.452-10.422c2.94-3.927 5.839-24.017 5.839-24.017l5.003-35.731s-.049-8.591-1.116-10.828c-1.067-2.236-4.641-7.164-4.641-7.164s3.465-.636 4.342.667c.878 1.304 13.027 21.794 14.167 24.743 1.14 2.948 1.624 7.637 3.307 7.743 1.684.105 3.133-12.867 3.133-12.867l2.121-28.095 5.866-5.674 1.231-1.19s-5.15 53.216-4.425 57.322c.724 4.107 4.592 47.016 7.8 51.095 3.209 4.079 6.109 5.173 6.109 5.173s-10.265.603-13.424-4.419c-3.16-5.021-8.988-42.609-8.988-42.609l-12.563-29.925s2.324 19.83 2.034 33.24c-.289 13.411-2.88 23.435-.448 33.498 2.431 10.063 9.438 18.539 9.438 18.539s-6.529-11.034-14.936-14.627c-8.407-3.594-16.301-4.452-16.301-4.452"/></g><g opacity=".23"><path fill="#000" d="M227.705 205.57s-6.377 16.083-5.546 20.519c.832 4.437-4.848-1.387-6.306-8.041-1.458-6.655 2.702-9.151-4.508-10.537-7.209-1.387-8.873-4.991-10.26 1.94-1.386 6.933-2.495 29.393 11.924 40.485 14.42 11.09 18.578 10.814 18.578 10.814s8.622 2.68 11.646-4.39c1.156-2.703-1.94-10.373-1.94-10.373l-4.438-8.252s8.873 5.823 13.587 12.2c4.714 6.378 8.596 18.302 8.596 25.788 0 4.223-1.676 7.387-3.137 9.343-1.139 1.525-3 2.32-4.898 2.154-3.43-.303-11.77.052-20.939-5.605-17.992-11.102-26.76-28.907-26.76-28.907s-13.138-21.744-12.86-38.66c.277-16.913-.727-21.233 6.482-23.73 7.21-2.495 17.192 2.497 17.192 2.497z"/></g><g opacity=".23"><path fill="#000" d="M213.29 187.268s6.377-6.74 6.377-9.886c0-3.146 5.812 4.943 5.812 4.943l25.799 24.63 9.151-22.182s-31.078-9.983-34.95-10.537c-3.87-.555-6.089-3.536-6.089-3.536l1.664-14.21s26.342 17.661 32.443 20.892c6.1 3.231 20.241 6.559 28.283 7.668 8.041 1.109 42.979 6.435 42.979 6.435s1.941 4.057 5.823 9.903c3.882 5.845 20.796 23.591 20.796 23.591s-30.224-16.36-46.306-21.074c-16.083-4.714-39.652-15.805-39.652-15.805s-5.244 6.655-3.177 14.696c2.067 8.041 10.109 17.469 10.109 17.469l43.811 24.401s-9.428 1.941-10.814 8.041c-1.387 6.101-3.328 14.697-3.328 14.697s-20.796-26.052-36.047-37.843c-15.25-11.792-52.684-42.293-52.684-42.293"/></g><g opacity=".23"><path fill="#000" d="M124.3 158.979s14.125-1.654 17.175-6.645c3.051-4.991 11.418-22.957 11.418-22.957l21.157-1.167 2.918 45.198s-1.709.192 1.918 3.978 15.551 4.618 15.551 4.618-7.21 7.62-18.856 8.318c-11.646.699-11.068-2.495-18.289-1.941-7.221.555-22.471 1.387-24.136-2.773-1.663-4.159 4.714.278 10.538-1.941 5.822-2.218 6.054-10.813 7.324-11.923 1.271-1.109 0-13.864 0-13.864s-8.156 3.05-13.979 3.328c-5.823.277-12.739-2.229-12.739-2.229"/></g><g opacity=".23"><path fill="#000" d="M46.117 183.908a6.519 6.519 0 1 1-13.038 0 6.519 6.519 0 0 1 13.038 0"/></g><g opacity=".23"><path fill="#000" d="M285.867 166.589a7.268 7.268 0 1 1-14.537 0 7.269 7.269 0 1 1 14.537 0"/></g></g></g></svg>