<svg xmlns="http://www.w3.org/2000/svg" width="29" height="30" viewBox="0 0 29 30"><defs><clipPath id="yup4a"><path d="M0 .17h28.835v29.829H0z"/></clipPath></defs><g><g><g><g/><g clip-path="url(#yup4a)"><path fill="#898f9c" d="M28.835 15.084C28.835 23.321 22.38 30 14.417 30 6.455 29.999 0 23.321 0 15.084 0 6.847 6.455.17 14.417.17c7.963 0 14.418 6.677 14.418 14.914"/></g></g><g><path fill="#fefefe" d="M5.035 19.968c.057-.096.15-.102.276-.018 2.879 1.74 6.01 2.61 9.396 2.61 2.257 0 4.485-.438 6.685-1.314l.25-.108c.11-.048.187-.084.234-.108.172-.072.307-.036.405.108.098.144.067.276-.095.396-.207.156-.472.336-.794.54a12.666 12.666 0 0 1-3.317 1.422c-1.22.336-2.412.504-3.575.504-1.796 0-3.495-.327-5.095-.98a13.953 13.953 0 0 1-4.302-2.764c-.068-.06-.103-.12-.103-.18zm5.199-5.13c0-.828.195-1.536.587-2.124a3.657 3.657 0 0 1 1.606-1.332c.622-.276 1.388-.474 2.298-.594.31-.036.817-.084 1.52-.144v-.306c0-.768-.081-1.284-.242-1.548-.242-.36-.622-.54-1.14-.54h-.138c-.38.036-.709.162-.985.378s-.455.516-.536.9c-.046.24-.16.378-.345.414l-1.986-.252c-.196-.048-.294-.156-.294-.324 0-.036.006-.078.017-.126.196-1.068.677-1.86 1.443-2.376.765-.516 1.66-.804 2.686-.864h.431c1.313 0 2.338.354 3.075 1.062.116.12.222.25.32.387.097.138.175.26.232.369.058.108.11.264.156.468.046.204.08.345.104.423.023.078.04.246.052.504.011.258.017.411.017.459v4.356c0 .312.043.597.13.855.086.258.17.444.25.558.08.114.213.297.397.549.07.108.103.204.103.288 0 .096-.045.18-.138.252L18.3 17.934c-.138.108-.305.12-.5.036a5.95 5.95 0 0 1-.424-.414 13.687 13.687 0 0 1-.26-.288 3.9 3.9 0 0 1-.25-.351 7.413 7.413 0 0 0-.242-.351c-.644.732-1.278 1.188-1.9 1.368-.391.12-.875.18-1.45.18-.887 0-1.615-.285-2.186-.855zm2.97-.36c0 .468.113.843.337 1.125.225.282.527.423.907.423a.872.872 0 0 0 .147-.018.83.83 0 0 1 .13-.018c.483-.132.857-.456 1.122-.972.127-.228.222-.477.285-.747.064-.27.098-.489.104-.657.005-.168.008-.444.008-.828v-.45c-.667 0-1.174.048-1.52.144zm7.255 5.796a.558.558 0 0 1 .104-.144c.288-.204.564-.342.829-.414.437-.12.863-.186 1.278-.198a.986.986 0 0 1 .328.018c.518.048.83.138.933.27a.61.61 0 0 1 .069.324v.126c0 .42-.11.915-.328 1.485-.219.57-.524 1.03-.916 1.377-.057.048-.109.072-.155.072a.148.148 0 0 1-.07-.018c-.068-.036-.085-.102-.05-.198.425-1.044.638-1.77.638-2.178 0-.132-.023-.228-.069-.288-.115-.144-.438-.216-.967-.216-.196 0-.426.012-.691.036a33.3 33.3 0 0 0-.795.108c-.069 0-.115-.012-.138-.036-.023-.024-.029-.048-.017-.072z"/></g></g></g></svg>