<svg xmlns="http://www.w3.org/2000/svg" width="30" height="30" viewBox="0 0 30 30"><defs><clipPath id="1dbza"><path d="M0 .17h29.829v29.829H0z"/></clipPath></defs><g><g><g><g/><g clip-path="url(#1dbza)"><path fill="#898f9c" d="M29.829 15.084C29.829 23.321 23.151 30 14.914 30 6.677 29.999 0 23.321 0 15.084 0 6.847 6.677.17 14.914.17S29.83 6.847 29.83 15.084"/></g></g><g><path fill="#fefefe" d="M11.66 23c6.794 0 10.508-5.386 10.508-10.056 0-.153-.003-.305-.01-.457A7.345 7.345 0 0 0 24 10.657a7.63 7.63 0 0 1-2.12.557 3.58 3.58 0 0 0 1.623-1.955c-.714.404-1.504.699-2.345.857A3.769 3.769 0 0 0 18.462 9c-2.04 0-3.693 1.583-3.693 3.534 0 .277.033.547.096.806-3.07-.148-5.791-1.554-7.612-3.693a3.405 3.405 0 0 0-.5 1.776c0 1.227.652 2.31 1.643 2.942a3.791 3.791 0 0 1-1.673-.442v.045c0 1.712 1.273 3.141 2.962 3.465a3.858 3.858 0 0 1-1.667.06c.47 1.405 1.833 2.427 3.45 2.456A7.625 7.625 0 0 1 6.88 21.46c-.298 0-.592-.016-.881-.048A10.797 10.797 0 0 0 11.66 23"/></g></g></g></svg>