<svg xmlns="http://www.w3.org/2000/svg" width="18" height="12" viewBox="0 0 18 12"><defs><clipPath id="a37wa"><path d="M0 0h17.908v11.297H0z"/></clipPath></defs><g><g><g/><g clip-path="url(#a37wa)"><path fill="#fff" d="M17.369 5.11a.542.542 0 0 1 .539.539.541.541 0 0 1-.539.538L9.26 6.186H6.186l-.001 3.075.001 1.5a.547.547 0 0 1-.158.38.537.537 0 0 1-.76 0L2.712 8.582.158 6.03a.538.538 0 0 1-.001-.76l2.556-2.558L5.268.158a.538.538 0 0 1 .918.379l-.001 1.498.001 3.074 3.074.003zm-12.258.539l-.002-3.615v-.196L3.474 3.474 1.298 5.649l2.174 2.174L5.111 9.46z"/></g></g></g></svg>