<svg xmlns="http://www.w3.org/2000/svg" width="30" height="30" viewBox="0 0 30 30"><defs><clipPath id="7eyoa"><path d="M0 0h29.99v29.988H0z"/></clipPath></defs><g><g><g><g/><g clip-path="url(#7eyoa)"><path fill="#fff" d="M29.99 14.994c0 8.268-6.728 14.994-14.998 14.994C6.724 29.988 0 23.262 0 14.994S6.724 0 14.992 0l1.12 1.119c-.372-.03-.747-.045-1.125-.045-7.67 0-13.911 6.244-13.911 13.92 0 7.674 6.242 13.918 13.911 13.918l13.917-13.918c0-.38-.015-.758-.046-1.131zM16.111 1.119l12.747 12.744c-.547-6.778-5.97-12.2-12.747-12.744z"/></g></g><g><path fill="#fff" d="M15.535 8.361v6.162c2.031.268 3.611 1.992 3.611 4.096a4.153 4.153 0 0 1-4.15 4.148 4.155 4.155 0 0 1-4.149-4.148.539.539 0 0 1 1.077 0 3.072 3.072 0 0 0 2.535 3.018V15.49c-2.037-.267-3.619-1.996-3.619-4.103a4.161 4.161 0 0 1 4.156-4.157 4.164 4.164 0 0 1 4.16 4.157.54.54 0 0 1-.539.539.54.54 0 0 1-.537-.539zm-1.07 6.058V8.36a3.084 3.084 0 0 0-2.55 3.03zm1.064 1.175v6.044a3.074 3.074 0 0 0 2.534-3.021z"/></g></g></g></svg>