<svg xmlns="http://www.w3.org/2000/svg" width="82" height="82" viewBox="0 0 82 82"><g><g><g><path fill="#1877f2" d="M82 40.748C82 18.243 63.644 0 41 0S0 18.243 0 40.748C0 61.086 14.993 77.943 34.594 81V52.526h-10.41V40.748h10.41V31.77c0-10.212 6.12-15.853 15.486-15.853 4.486 0 9.178.796 9.178.796V26.74h-5.17c-5.093 0-6.682 3.14-6.682 6.363v7.644h11.371L56.96 52.526h-9.554V81C67.006 77.943 82 61.086 82 40.748"/></g><g><path fill="#fff" d="M56.707 52.845L58.52 40.99H47.174v-7.692c0-3.244 1.584-6.405 6.667-6.405H59V16.801S54.318 16 49.842 16c-9.346 0-15.454 5.677-15.454 15.955v9.035H24v11.855h10.388v28.657c2.083.327 4.218.498 6.393.498s4.31-.17 6.393-.498V52.845z"/></g></g></g></svg>