<svg xmlns="http://www.w3.org/2000/svg" xmlns:xlink="http://www.w3.org/1999/xlink" version="1.1" id="Layer_1" x="0px" y="0px" viewBox="0 0 316.7 51.1" style="enable-background:new 0 0 316.7 51.1;" xml:space="preserve">
<style type="text/css">
  .st0{fill-rule:evenodd;clip-rule:evenodd;fill:#FF9900;}
  .st1{fill-rule:evenodd;clip-rule:evenodd;fill:#232F3E;}
  .st2{fill:#232F3E;}
</style>
<g>
  <g>
    <g>
      <path class="st0" d="M252.3,40c-9.9,7.3-24.1,11.1-36.4,11.1c-17.2,0-32.8-6.4-44.5-17c-0.9-0.8-0.1-2,1-1.3     c12.7,7.4,28.4,11.8,44.5,11.8c10.9,0,22.9-2.3,34-7C252.5,37,253.9,38.8,252.3,40z"/>
      <path class="st0" d="M256.4,35.3c-1.3-1.6-8.3-0.8-11.5-0.4c-1,0.1-1.1-0.7-0.2-1.3c5.6-4,14.9-2.8,16-1.5     c1.1,1.3-0.3,10.6-5.6,15c-0.8,0.7-1.6,0.3-1.2-0.6C255,43.6,257.6,36.9,256.4,35.3z"/>
    </g>
    <g>
      <g>
        <path class="st1" d="M245.1,5.6V1.7c0-0.6,0.4-1,1-1l17.3,0c0.6,0,1,0.4,1,1V5c0,0.6-0.5,1.3-1.3,2.4l-8.9,12.8      c3.3-0.1,6.8,0.4,9.8,2.1c0.7,0.4,0.9,0.9,0.9,1.5v4.1c0,0.6-0.6,1.2-1.3,0.9c-5.3-2.8-12.4-3.1-18.2,0      c-0.6,0.3-1.2-0.3-1.2-0.9v-3.9c0-0.6,0-1.7,0.6-2.6l10.4-14.9l-9,0C245.6,6.6,245.1,6.2,245.1,5.6z"/>
        <path class="st1" d="M182.2,29.6H177c-0.5,0-0.9-0.4-0.9-0.9l0-26.9c0-0.5,0.5-1,1-1l4.9,0c0.5,0,0.9,0.4,1,0.9v3.5h0.1      c1.3-3.4,3.7-5,6.9-5c3.3,0,5.3,1.6,6.8,5c1.3-3.4,4.2-5,7.3-5c2.2,0,4.6,0.9,6.1,2.9c1.7,2.3,1.3,5.6,1.3,8.4l0,17      c0,0.5-0.5,1-1,1h-5.2c-0.5,0-0.9-0.5-0.9-1l0-14.3c0-1.1,0.1-4-0.1-5c-0.4-1.8-1.6-2.3-3.1-2.3c-1.3,0-2.6,0.9-3.1,2.2      c-0.5,1.4-0.5,3.6-0.5,5.2v14.3c0,0.5-0.5,1-1,1H191c-0.5,0-0.9-0.5-0.9-1l0-14.3c0-3,0.5-7.4-3.2-7.4c-3.8,0-3.6,4.3-3.6,7.4      l0,14.3C183.2,29.2,182.8,29.6,182.2,29.6z"/>
        <path class="st1" d="M279.2,0.3c7.8,0,12,6.7,12,15.2c0,8.2-4.7,14.7-12,14.7c-7.6,0-11.8-6.7-11.8-15      C267.4,6.8,271.6,0.3,279.2,0.3z M279.3,5.8c-3.9,0-4.1,5.3-4.1,8.6c0,3.3,0,10.3,4.1,10.3c4.1,0,4.3-5.7,4.3-9.1      c0-2.3-0.1-5-0.8-7.1C282.1,6.5,280.9,5.8,279.3,5.8z"/>
        <path class="st1" d="M301.3,29.6h-5.2c-0.5,0-0.9-0.5-0.9-1l0-27c0-0.5,0.5-0.9,1-0.9l4.9,0c0.5,0,0.8,0.3,0.9,0.8v4.1h0.1      c1.5-3.7,3.5-5.4,7.2-5.4c2.4,0,4.7,0.8,6.1,3.2c1.4,2.2,1.4,5.8,1.4,8.4v17c-0.1,0.5-0.5,0.8-1,0.8h-5.3      c-0.5,0-0.9-0.4-0.9-0.8V14.2c0-2.9,0.3-7.3-3.3-7.3c-1.3,0-2.5,0.9-3,2.2c-0.7,1.6-0.8,3.3-0.8,5.1v14.5      C302.3,29.2,301.9,29.6,301.3,29.6z"/>
        <path class="st1" d="M231.4,16.8c0,2,0,3.7-1,5.6c-0.8,1.5-2.2,2.4-3.6,2.4c-2,0-3.2-1.5-3.2-3.8c0-4.5,4-5.3,7.8-5.3V16.8z       M236.7,29.6c-0.3,0.3-0.8,0.3-1.2,0.1c-1.7-1.4-2.1-2.1-3-3.5c-2.9,2.9-4.9,3.8-8.7,3.8c-4.4,0-7.9-2.7-7.9-8.2      c0-4.3,2.3-7.2,5.6-8.6c2.8-1.3,6.8-1.5,9.9-1.8v-0.7c0-1.3,0.1-2.7-0.6-3.8c-0.6-1-1.9-1.4-2.9-1.4c-2,0-3.8,1-4.2,3.2      c-0.1,0.5-0.4,0.9-0.9,1l-5.1-0.6c-0.4-0.1-0.9-0.4-0.8-1.1c1.2-6.2,6.7-8,11.7-8c2.6,0,5.9,0.7,7.9,2.6c2.6,2.4,2.3,5.6,2.3,9      v8.2c0,2.5,1,3.5,2,4.9c0.3,0.5,0.4,1,0,1.4C239.6,27,237.7,28.6,236.7,29.6L236.7,29.6z"/>
        <path class="st1" d="M162.6,16.8c0,2,0,3.7-1,5.6c-0.8,1.5-2.2,2.4-3.6,2.4c-2,0-3.2-1.5-3.2-3.8c0-4.5,4-5.3,7.8-5.3V16.8z       M167.9,29.6c-0.3,0.3-0.8,0.3-1.2,0.1c-1.7-1.4-2.1-2.1-3-3.5c-2.9,2.9-4.9,3.8-8.7,3.8c-4.4,0-7.9-2.7-7.9-8.2      c0-4.3,2.3-7.2,5.6-8.6c2.8-1.3,6.8-1.5,9.9-1.8v-0.7c0-1.3,0.1-2.7-0.6-3.8c-0.6-1-1.9-1.4-2.9-1.4c-2,0-3.8,1-4.2,3.2      c-0.1,0.5-0.4,0.9-0.9,1l-5.1-0.6C148.3,9,147.9,8.7,148,8c1.2-6.2,6.7-8,11.7-8c2.6,0,5.9,0.7,7.9,2.6c2.6,2.4,2.3,5.6,2.3,9      v8.2c0,2.5,1,3.5,2,4.9c0.3,0.5,0.4,1,0,1.4C170.8,27,168.9,28.6,167.9,29.6L167.9,29.6z"/>
      </g>
    </g>
  </g>
  <g>
    <path class="st2" d="M4.1,24.8c-1.2,0-2.2-0.4-3-1.1C0.4,23,0,22.1,0,20.9c0-1.3,0.5-2.3,1.4-3c0.9-0.8,2.1-1.1,3.7-1.1    c1,0,2.1,0.1,3.3,0.4v-1.7c0-0.9-0.2-1.6-0.6-2s-1.2-0.6-2.2-0.6c-1.2,0-2.4,0.2-3.5,0.5c-0.4,0.1-0.7,0.2-0.8,0.2    c-0.2,0-0.3-0.2-0.3-0.5v-0.7c0-0.2,0-0.4,0.1-0.5c0.1-0.1,0.2-0.2,0.4-0.3c0.5-0.2,1.2-0.4,2-0.6c0.8-0.1,1.6-0.2,2.5-0.2    c1.7,0,2.9,0.3,3.7,1c0.8,0.7,1.2,1.7,1.2,3.1v8.9c0,0.3-0.2,0.5-0.5,0.5H9.1c-0.3,0-0.5-0.2-0.6-0.5l-0.1-0.9    c-0.6,0.5-1.3,1-2.1,1.3S4.8,24.8,4.1,24.8z M4.7,22.8c0.6,0,1.2-0.1,1.8-0.3c0.6-0.2,1.2-0.6,1.8-1v-2.7    c-0.9-0.2-1.9-0.3-2.8-0.3c-2,0-2.9,0.8-2.9,2.3c0,0.7,0.2,1.2,0.5,1.5C3.5,22.7,4,22.8,4.7,22.8z"/>
    <path class="st2" d="M18.4,24.5c-0.2,0-0.4,0-0.5-0.1c-0.1-0.1-0.2-0.3-0.4-0.6l-4.6-11.6c0-0.1-0.1-0.2-0.1-0.3    c0-0.1-0.1-0.2-0.1-0.3c0-0.2,0.1-0.3,0.4-0.3h1.5c0.3,0,0.4,0,0.5,0.1c0.1,0.1,0.2,0.3,0.3,0.6l3.6,10.2l3.6-10.2    c0.1-0.3,0.2-0.5,0.3-0.6c0.1-0.1,0.3-0.1,0.5-0.1H25c0.3,0,0.4,0.1,0.4,0.3c0,0.1,0,0.2-0.1,0.3s-0.1,0.2-0.1,0.3l-4.6,11.6    c-0.1,0.3-0.2,0.5-0.4,0.6s-0.3,0.1-0.5,0.1H18.4z"/>
    <path class="st2" d="M30.8,24.8c-1.2,0-2.2-0.4-3-1.1c-0.7-0.7-1.1-1.6-1.1-2.8c0-1.3,0.5-2.3,1.4-3c0.9-0.8,2.1-1.1,3.7-1.1    c1,0,2.1,0.1,3.3,0.4v-1.7c0-0.9-0.2-1.6-0.6-2s-1.2-0.6-2.2-0.6c-1.2,0-2.4,0.2-3.5,0.5c-0.4,0.1-0.7,0.2-0.8,0.2    c-0.2,0-0.3-0.2-0.3-0.5v-0.7c0-0.2,0-0.4,0.1-0.5c0.1-0.1,0.2-0.2,0.4-0.3c0.5-0.2,1.2-0.4,2-0.6c0.8-0.1,1.6-0.2,2.5-0.2    c1.7,0,2.9,0.3,3.7,1c0.8,0.7,1.2,1.7,1.2,3.1v8.9c0,0.3-0.2,0.5-0.5,0.5h-1.1c-0.3,0-0.5-0.2-0.6-0.5l-0.1-0.9    c-0.6,0.5-1.3,1-2.1,1.3S31.6,24.8,30.8,24.8z M31.5,22.8c0.6,0,1.2-0.1,1.8-0.3c0.6-0.2,1.2-0.6,1.8-1v-2.7    c-0.9-0.2-1.9-0.3-2.8-0.3c-2,0-2.9,0.8-2.9,2.3c0,0.7,0.2,1.2,0.5,1.5C30.3,22.7,30.8,22.8,31.5,22.8z"/>
    <path class="st2" d="M42.5,8.9c-0.5,0-0.9-0.1-1.2-0.4s-0.4-0.7-0.4-1.1c0-0.5,0.1-0.8,0.4-1.1s0.7-0.4,1.2-0.4    c0.5,0,0.9,0.1,1.2,0.4s0.4,0.7,0.4,1.1c0,0.5-0.1,0.8-0.4,1.1S43,8.9,42.5,8.9z M41.7,24.5c-0.3,0-0.5-0.2-0.5-0.5V11.8    c0-0.3,0.2-0.5,0.5-0.5h1.5c0.3,0,0.5,0.2,0.5,0.5v12.2c0,0.3-0.2,0.5-0.5,0.5H41.7z"/>
    <path class="st2" d="M50.2,24.6c-0.9,0-1.6-0.3-2.1-0.8c-0.5-0.5-0.7-1.3-0.7-2.3V5.7c0-0.3,0.2-0.5,0.5-0.5h1.5    c0.3,0,0.5,0.2,0.5,0.5v15.7c0,0.4,0.1,0.7,0.2,0.9c0.2,0.2,0.4,0.3,0.8,0.3c0.1,0,0.2,0,0.3,0c0.1,0,0.2,0,0.3,0    c0.2,0,0.3,0,0.4,0.1c0.1,0.1,0.1,0.2,0.1,0.4v0.8c0,0.2,0,0.3-0.1,0.4s-0.2,0.2-0.4,0.2C51.2,24.5,50.7,24.6,50.2,24.6z"/>
    <path class="st2" d="M58.2,24.8c-1.2,0-2.2-0.4-3-1.1c-0.7-0.7-1.1-1.6-1.1-2.8c0-1.3,0.5-2.3,1.4-3c0.9-0.8,2.1-1.1,3.7-1.1    c1,0,2.1,0.1,3.3,0.4v-1.7c0-0.9-0.2-1.6-0.6-2s-1.2-0.6-2.2-0.6c-1.2,0-2.4,0.2-3.5,0.5c-0.4,0.1-0.7,0.2-0.8,0.2    c-0.2,0-0.3-0.2-0.3-0.5v-0.7c0-0.2,0-0.4,0.1-0.5c0.1-0.1,0.2-0.2,0.4-0.3c0.5-0.2,1.2-0.4,2-0.6c0.8-0.1,1.6-0.2,2.5-0.2    c1.7,0,2.9,0.3,3.7,1c0.8,0.7,1.2,1.7,1.2,3.1v8.9c0,0.3-0.2,0.5-0.5,0.5h-1.1c-0.3,0-0.5-0.2-0.6-0.5l-0.1-0.9    c-0.6,0.5-1.3,1-2.1,1.3S58.9,24.8,58.2,24.8z M58.8,22.8c0.6,0,1.2-0.1,1.8-0.3c0.6-0.2,1.2-0.6,1.8-1v-2.7    c-0.9-0.2-1.9-0.3-2.8-0.3c-2,0-2.9,0.8-2.9,2.3c0,0.7,0.2,1.2,0.5,1.5C57.6,22.7,58.1,22.8,58.8,22.8z"/>
    <path class="st2" d="M75.1,24.7c-1.6,0-3-0.6-4.2-1.7l-0.2,0.9c-0.1,0.3-0.3,0.5-0.6,0.5H69c-0.3,0-0.5-0.2-0.5-0.5V5.7    c0-0.3,0.2-0.5,0.5-0.5h1.5c0.3,0,0.5,0.2,0.5,0.5v6.8c1.3-1.1,2.7-1.6,4.2-1.6c1.7,0,3,0.6,4,1.8c1,1.2,1.5,2.9,1.5,5    c0,2.1-0.5,3.9-1.5,5.1C78.2,24.1,76.8,24.7,75.1,24.7z M74.5,22.7c2.4,0,3.6-1.6,3.6-4.9c0-1.7-0.3-2.9-0.9-3.7    c-0.6-0.8-1.5-1.2-2.7-1.2c-1.2,0-2.4,0.4-3.5,1.2v7.3C72.2,22.2,73.3,22.7,74.5,22.7z"/>
    <path class="st2" d="M86.6,24.6c-0.9,0-1.6-0.3-2.1-0.8c-0.5-0.5-0.7-1.3-0.7-2.3V5.7c0-0.3,0.2-0.5,0.5-0.5h1.5    c0.3,0,0.5,0.2,0.5,0.5v15.7c0,0.4,0.1,0.7,0.2,0.9c0.2,0.2,0.4,0.3,0.8,0.3c0.1,0,0.2,0,0.3,0c0.1,0,0.2,0,0.3,0    c0.2,0,0.3,0,0.4,0.1c0.1,0.1,0.1,0.2,0.1,0.4v0.8c0,0.2,0,0.3-0.1,0.4s-0.2,0.2-0.4,0.2C87.5,24.5,87.1,24.6,86.6,24.6z"/>
    <path class="st2" d="M96.6,24.9c-2.1,0-3.8-0.6-4.9-1.8c-1.1-1.2-1.6-2.9-1.6-5.2c0-2.2,0.5-3.9,1.6-5.2s2.6-1.8,4.6-1.8    c1.7,0,2.9,0.5,3.8,1.4c0.9,0.9,1.3,2.2,1.3,4c0,0.6,0,1.1-0.1,1.7c0,0.2-0.1,0.3-0.2,0.4c-0.1,0.1-0.2,0.1-0.4,0.1h-8.2    c0,1.5,0.4,2.6,1.1,3.3c0.7,0.7,1.8,1.1,3.3,1.1c0.5,0,1,0,1.5-0.1c0.5-0.1,1.1-0.2,1.8-0.4c0.1,0,0.2-0.1,0.3-0.1    c0.1,0,0.2,0,0.2,0c0.2,0,0.3,0.2,0.3,0.5v0.7c0,0.2,0,0.4-0.1,0.5c-0.1,0.1-0.2,0.2-0.4,0.3c-0.5,0.2-1.1,0.4-1.9,0.5    C98.1,24.8,97.3,24.9,96.6,24.9z M99.1,16.7c0-0.1,0-0.4,0-0.7c0-1.1-0.2-1.9-0.7-2.4s-1.2-0.8-2.2-0.8c-1.1,0-1.9,0.3-2.6,1    s-1,1.6-1,2.9H99.1z"/>
    <path class="st2" d="M114.7,24.8c-1.2,0-2.2-0.4-3-1.1c-0.7-0.7-1.1-1.6-1.1-2.8c0-1.3,0.5-2.3,1.4-3c0.9-0.8,2.1-1.1,3.7-1.1    c1,0,2.1,0.1,3.3,0.4v-1.7c0-0.9-0.2-1.6-0.6-2s-1.2-0.6-2.2-0.6c-1.2,0-2.4,0.2-3.5,0.5c-0.4,0.1-0.7,0.2-0.8,0.2    c-0.2,0-0.3-0.2-0.3-0.5v-0.7c0-0.2,0-0.4,0.1-0.5c0.1-0.1,0.2-0.2,0.4-0.3c0.5-0.2,1.2-0.4,2-0.6c0.8-0.1,1.6-0.2,2.5-0.2    c1.7,0,2.9,0.3,3.7,1c0.8,0.7,1.2,1.7,1.2,3.1v8.9c0,0.3-0.2,0.5-0.5,0.5h-1.1c-0.3,0-0.5-0.2-0.6-0.5l-0.1-0.9    c-0.6,0.5-1.3,1-2.1,1.3S115.4,24.8,114.7,24.8z M115.3,22.8c0.6,0,1.2-0.1,1.8-0.3c0.6-0.2,1.2-0.6,1.8-1v-2.7    c-0.9-0.2-1.9-0.3-2.8-0.3c-2,0-2.9,0.8-2.9,2.3c0,0.7,0.2,1.2,0.5,1.5C114.1,22.7,114.6,22.8,115.3,22.8z"/>
    <path class="st2" d="M129.6,24.6c-2.5,0-3.7-1.2-3.7-3.7v-7.7H124c-0.3,0-0.5-0.2-0.5-0.5v-0.7c0-0.2,0-0.3,0.1-0.4    s0.2-0.1,0.5-0.2l1.9-0.2l0.3-3.2c0-0.3,0.2-0.5,0.5-0.5h1.1c0.3,0,0.5,0.2,0.5,0.5v3.2h3.4c0.3,0,0.5,0.2,0.5,0.5v1    c0,0.3-0.2,0.5-0.5,0.5h-3.4v7.5c0,0.6,0.1,1.1,0.4,1.4s0.8,0.4,1.5,0.4c0.3,0,0.7,0,1.2-0.1c0.3-0.1,0.4-0.1,0.5-0.1    c0.1,0,0.2,0,0.3,0.1s0.1,0.2,0.1,0.4v0.7c0,0.2,0,0.4-0.1,0.5c-0.1,0.1-0.2,0.2-0.4,0.3C131.3,24.5,130.5,24.6,129.6,24.6z"/>
  </g>
</g>
</svg>