<svg xmlns="http://www.w3.org/2000/svg" width="192" height="182" viewBox="0 0 192 182"><defs><clipPath id="b90ca"><path d="M45.16 7.6h29.747v36.216H45.16z"/></clipPath><clipPath id="b90cb"><path d="M93.03.2h60.776v48.67H93.03z"/></clipPath></defs><g><g transform="rotate(62 97.5 81)"><g transform="rotate(-32 53 32.5)"><path fill="#020202" d="M27.11 84.062c-3.119 1.343-6.083.897-7.336.692C8.352 82.89 3.34 82.164 3.34 82.164s23.656 17.356 33.94 23.69c1.256.773 3.828 2.341 5.02 5.342 1.274 3.203.81 6.17.81 6.17s3.306-5.05 4.763-9.74c1.201-3.861.958-7.268.958-7.268s-4.662-1.576-9.506-3.008c-7.396-2.184-12.924-7.954-12.218-9.586.797-1.84 11.548-1.107 11.548-1.107s-4.29-11.143-3.25-11.926c.835-.628 5.468 4.155 8.28 7.534 3.57 4.29 8.545 15.211 8.545 15.211s4.664.023 6.25-1.722c1.959-2.155 1.093-7.882 1.093-7.882s-4.76-3.884-10.452-8.355c-.643-.505-.758-.627-7.872-8.082-6.463-6.773-9.747-10.178-12.329-11.063-4.805-1.647-10.754.252-10.754.252s.657.865 1.221 1.233c5.492 3.58 8.606 9.05 9.771 11.097 1.459 2.562 3.013 5.292 1.966 7.764-.837 1.976-2.959 2.89-4.014 3.344"/></g><g transform="rotate(-32 84.5 23)"><path fill="#020202" d="M35.881 64.858c2.384 3.47 6.004 6.237 7.456 10.192.205.557 2.305 2.853 2.305 2.853s1.487-.037 2.036-.274c3.131-1.35 5.265-4.042 5.297-4.084 5.263-6.639 9.814-7.15 9.511-10.478-.123-1.348-2.033-2.99-2.033-2.99S58.42 61.174 57.6 62.12c-2.086 2.405-5.592 5.46-8.422 6.262-4.23 1.201-10.135-1.724-10.717-5.293-.262-1.604.61-2.976 1.225-3.944 1.831-2.883 5.126-4.4 7.182-4.784-.504-.968-.877-2.36-.66-3.652.41-2.442 2.583-3.946 2.583-3.946s-3.55 1.21-7.062 4.222c-3.534 3.03-3.474 4.315-5.298 4.763-3.49.858-8.565-2.657-9.63-7.198-.487-2.074-.335-5.213 1.499-6.936.93-.873 1.432-.576 2.716-1.498 2.68-1.925 3.128-6.665 3.128-6.665s-3.262.64-5.024 1.636c-6.153 3.477-6.905 7.057-11.544 8.304-3.015.811-4.887.549-4.887.549s16.162 10.69 23.191 20.92"/></g><g transform="rotate(-32 93 26.5)"><path fill="#020202" d="M45.922 49.84c.367-.044.73-.7.533-.975-.17-.24-.834-.292-1.745-.137.398.697.878 1.15 1.212 1.111"/></g><g transform="rotate(-32 119.5 28.5)"><g/><g clip-path="url(#b90ca)"><path fill="#020202" d="M45.397 38.24c-.877-3.15.933-5.868 1.372-6.527.904-1.357 3.134-3.628 5.079-7.343-3.053-3.281-3.295-3.672-3.295-3.672-1.314-2.125-1.558-5.234-.411-7.887.424-.98 2.256-4.715 6.314-5.167 3.016-.336 6.01 1.283 7.274 3.672.959 1.809.493 5.963-.274 7.75-1.697 3.953-3.294 5.984-3.294 5.984s2.531 6.051 4.941 5.983c1.827-.051 3.615-2.051 3.844-2.311l1.784-2.04s1.51 1.299 1.372 2.448c-.17 1.423-1.81 2.527-4.118 4.08-1.001.673-1.174.694-1.235.951-.52 2.176 10.157 7.207 10.157 7.207s-2.657-.703-3.431.272c-.561.707-.137 2.176-.137 2.176s-2.003-1.817-5.354-3.536c-1.524-.782-2.646-1.048-3.431-2.311-.42-.677-.543-1.316-.961-1.36-.583-.063-.985 1.113-1.784 2.175-1.115 1.48-2.54 2.128-3.843 2.72-1.49.676-4.956 2.25-7.824.544zm11.394-7.485c-1.353-.85-2.423-1.001-2.474-1.631v-.004c.535-.621 1.025-1.027.963-1.084-.08-.072-1.007.48-.963 1.084-.648.755-1.363 1.828-1.236 2.994.132 1.222 1.16 2.305 2.335 2.72 1.67.588 3.77-.125 3.986-1.088zm-4.67-10.187c1.25 1.319 3.071 1.23 3.16 1.224 2.353-.15 3.91-2.54 4.395-4.354.126-.471.838-3.125-.824-4.898-1.943-2.075-5.942-1.675-7.418.272-.918 1.213-.69 2.806-.412 4.762z"/></g></g><g transform="rotate(-32 133 54.5)"><path fill="#020202" d="M66.916 38.966c-2.978.406-5.616-.281-5.616-.281s2.351 1.719 3.95 2.453c4.437 2.036 5.379 1.395 7.904 2.996 2.904 1.84 4.767 3.68 4.767 3.68s.35-1.073.822-4.095c.037-.234.39-2.463.958-4.504.544-1.953 1.179-3.36 1.64-4.37 4.436-9.715 8.054-14.338 8.054-14.338s1.878 3.353 2.041 4.23c.616 3.299.268 5.868.268 5.868s1.696-.695 4.5-2.46c1.203-.757 3.992-2.43 7.228-3.556 2.29-.796 5.998-.96 5.998-.96s.11.476-3.002 3.005c-2.236 1.819-3.955 3.006-3.955 3.006-4.902 3.388-7.353 5.081-8.184 6.15-2.028 2.608-1.152 3.465-3.276 5.462-1.673 1.573-2.517 1.324-5.047 3.553-1.199 1.057-1.16 1.246-3.138 3.142-2.537 2.432-3.274 3.142-3.274 3.142s7.156-1.095 13.635-4.653c1.464-.803 7.663-4.308 13.64-11.067 6.37-7.202 4.449-9.01 9.965-15.568.223-.266.956-2.048.956-2.048s-4.523 1.6-10.77 2.466c-3.083.427-5.17.685-7.224-.54-2.048-1.221-3.812-3.767-3.403-6.002.218-1.193.85-1.172 1.775-2.868.116-.213 1.984-3.758.961-7.78C98.564.969 96.366-1.2 96.366-1.2s-.609.69-.818 1.23c-.956 2.456-2.278 3.018-4.095 5.326-1.678 2.133-2.037 3.544-3.413 6.417-2.982 6.23-4.192 5.654-7.917 12.428-3.346 6.086-3.047 7.783-6.143 10.787-1.369 1.33-3.683 3.517-7.064 3.978"/></g><g transform="rotate(-32 151 84)"><g/><g clip-path="url(#b90cb)"><path fill="#020202" d="M153.758 27.62s-1.286 2.987-4.085 5.346c-2.096 1.767-4.36 2.269-5.31 2.468-4.175.876-7.51-.613-8.85-1.234-2.038-.943-4.514-2.09-5.72-4.66-1.51-3.22-.09-6.67 1.226-9.872.759-1.846 2.557-6.217 6.808-9.597 2.007-1.595 3.496-2.124 5.038-4.387C144.189 3.74 144.499.2 144.499.2s-4.457 1.641-7.761 3.976c-1.185.837-2.156 1.523-3.405 2.605-3.777 3.274-4.494 5.322-7.76 8.637-2.192 2.224-2.073 1.508-5.447 4.524-6.15 5.499-5.218 6.689-9.395 9.597-3.954 2.753-5.323 2.059-9.532 5.073-.782.56-1.772 1.327-3.267 1.508-2.524.304-4.902-.686-4.902-.686s.625 2.82.817 3.154c1.716 2.977 3.5 2.663 4.766 5.072 1.27 2.418 1.225 5.21 1.225 5.21s.407-.613.451-.755c1.105-3.545 6.441-7.31 7.447-8.02 1.75-1.235 4.025-2.84 7.352-3.564 4.175-.909 7.614.09 10.485.96 7.972 2.416 8.3 5.733 13.343 5.895 5.553.178 9.647-3.699 10.348-4.387 3.155-3.094 4.013-6.692 4.357-8.226.31-1.378.137-3.153.137-3.153"/></g></g><g transform="rotate(-32 37.5 82.5)"><path fill="#020202" d="M73.93 147.937c-2.262 2.215-6.798 6.656-13.819 6.98-6.482.297-14.236-2.954-15.735-7.801-1.755-5.677-1.094-8.621-1.094-8.621.094-.419.454-1.821-.274-2.874-.312-.45-.701-.662-1.231-.958-1.107-.618-2.147-1.356-3.284-1.916-2.331-1.146-5.063-3.968-5.063-3.968s3.123.766 6.842.684c1.87-.042 4.09-.452 10.262-3.832 4.88-2.672 8.368-4.583 12.724-8.21 1.93-1.607 8.056-6.709 10.81-12.043 1.874-3.63 2.81-5.445 2.873-7.253.016-.474.41-1.505.41-1.505s2.27 1.925 3.421 3.558c1.437 2.04 1.194 2.135 1.779 2.6 1.756 1.396 3.567.23 6.43.821.194.04 4.325.947 5.748 3.832 1.981 4.02-2.477 9.486-3.558 10.81 0 0-3.059 3.75-8.21 5.611-.931.337-1.735.627-2.873.685-1.911.096-3.284-.137-3.284-.137s1.05 1.974 2.052 3.694c1.74 2.986 1.676 6.05 1.643 7.664zm-1.778-30.79c.103.245.4.269 1.916.684 1.522.418 1.904.581 2.325.684 1.726.421 5.192.081 8.073-2.053 1.025-.758 4.513-3.342 3.831-6.02-.531-2.089-3.335-3.205-5.199-3.422-.631-.073-1.41-.164-2.326.137-2.441.803-2.192 3.19-5.062 6.295zm-2.882 8.62c-1.127-1.374-2.548-3.107-4.513-3.146-1.725-.035-2.195 1.269-5.47 3.42-3.946 2.593-5.071 1.889-6.565 3.833-1.596 2.076-1.62 4.584-1.641 6.705-.02 1.989-.044 4.487 1.504 6.842 1.844 2.806 5.177 4.281 8.07 4.38 5.963.202 11.586-5.398 12.308-11.496z"/></g><g transform="rotate(-32 49 103.5)"><path fill="#020202" d="M112.222 109.742c1.824-1.987 2.405-3.469 3.567-6.433.217-.552.276-1.778.276-1.778l-7.12-2.867s-.35 2.856-.142 5.062c.447 4.742-1.85 6.605-6.726 16.286-4.938 9.806-5.801 14.29-9.602 15.468-.687.212-3.485 1.079-4.93-.27-.623-.58-.768-1.36-.821-1.64-.69-3.683 4.565-10.677 7.959-16.288 4.87-8.051 3.111-8.627 7.272-13.824 3.06-3.821 5.897-8.486 5.897-8.486s-2.819-.188-5.203-2.048c-1.625-1.267-2.463-2.734-2.463-2.734s.412 3.235.68 5.198c.628 4.606-1.543 8.318-6.726 16.286-5.548 8.527-8.321 12.79-10.424 15.605-5.269 7.054-7.868 9.547-9.327 15.057-.745 2.808-1.974 7.449.401 10.123 2.892 3.256 9.853 2.165 14.383-.15 5.87-3 8.44-8.844 13.579-20.532 4.955-11.272 6.24-18.515 9.47-22.035"/></g><g transform="rotate(-32 67.5 122.5)"><path fill="#020202" d="M131.631 88.92c2.646-5.302 5.497-11.77 5.497-11.77s-2.805 1.592-6.722 1.374c-.743-.042-1.646.138-1.646.138s-.777 3.839-.555 6.567c0 0 .517 6.316-1.657 12.86-1.464 4.409-4.808 8.212-4.808 8.212s-.18-.747-.136-1.368c.348-4.865-.492-4.56-.13-8.207.361-3.625 1.5-7.023 2.252-8.62-.998-.964-2.789-4.102-2.789-4.102s-2.46 6.447-3.304 13.41c-1.64 13.55-1.123 14.498-2.213 20.93-1.247 7.366-2.317 13.325-6.326 19.569-2.773 4.316-4.781 7.443-8.787 9.72-2.194 1.247-4.667 3.15-4.667 3.15s1.538.911 4.388 1.775c6.063 1.838 9.324 2.727 9.324 2.727s-.06-1.642.141-3.967c.244-2.812 1.545-3.178 3.573-7.527 1.838-3.941 2.628-7.622 2.75-8.21.59-2.82.964-4.652.964-4.652s.53 4.272 2.736 9.436c1.056 2.474 4.246 6.153 4.246 6.153s.434-5.144.146-10.397c-.715-13.08 1.334-23.33 2.495-29.14 1.687-8.435 2.53-12.653 5.228-18.062"/></g><g transform="rotate(-32 87.5 99)"><path fill="#020202" d="M107.328 88.525c.246-.099.249-1.154.11-1.194-.084-.024-.273.323-.508.929.166.196.306.301.398.265"/></g><g transform="rotate(-32 89.5 132.5)"><path fill="#020202" d="M145.028 101.08s-.01 1.254-.681 2.857c-1.396 3.335-5.697 4.764-5.697 4.764s1.369-.109 2.982.133c2.239.336 5.21 1.983 5.96 4.89.44 1.707.233 4.3-1.36 5.44-2.28 1.631-6.377-.439-8.539-2.167-6.188-4.948-6.119-14.764-6.082-19.984.057-8.058 1.165-17.998 2.457-19.583.888-1.088 2.59-1.902 3.662-1.363 2.072 1.043 1.62 6.797 1.62 6.797s1.795-2.437 2.309-4.761c.246-1.114.579-2.62.275-4.488-.507-3.112-2.751-7.03-5.822-7.337-.407-.04-1.662-.102-3.255.954-4.417 2.932-7.78 33.941-7.896 38.762-.331 13.755 3.289 24.05 13.804 25.687 4.622.72 14.073-4.39 15.597-9.26 1.367-4.367.039-8.038-.94-10.742-2.244-6.203-8.394-10.598-8.394-10.598"/></g><g transform="rotate(-32 122.5 127.5)"><path fill="#020202" d="M168.445 74.097a3.878 3.878 0 0 1-1.491 0c-.866-.18-1.442-.664-1.626-.815-5.492-4.508-11.549-8.304-16.938-12.936-9.944-8.544-11.991-9.76-12.6-12.802-.085-.43-1.623-3.134-1.623-3.134s-1.42 1.739-3.528 2.457c-1.217.415-2.035.41-2.035.41s3.134 2.838 7.588 6.673c5.352 4.61 3.326 4.292 8.128 8.445.987.854 2.002 1.671 2.167 2.997.204 1.645-1.001 3.256-1.944 4.326-.478-1.445-4.514-3.544-10.934-8.404-1.203-.91-2.829-2.176-2.709-3.679.123-1.533 1.766-3 1.766-3s-.792.192-1.899.41c-1.315.26-2.37.098-2.983.003-1.664-.256-2.954-.936-3.795-1.496l-.839-.303c.41.657 1.053 1.635 1.921 2.756 2.583 3.332 4.864 4.955 6.639 6.537 3.087 2.751 2.386 3.366 6.907 8.991 3.302 4.109 3.484 3.542 8.805 9.535 4.581 5.159 6.9 7.804 8.261 11.034.913 2.163 2.104 4.986 2.298 8.858l.267 5.316s2.386-2.938 3.122-4.365c1.64-3.179 1.375-3.876 2.853-6.409 1.57-2.692 2.309-3.82 2.309-3.82s-4.396-1.774-9.352-5.307c-4.546-3.24-3.281-5.19-8.399-8.99-.916-.68-2.818-1.999-2.573-3.269.128-.662.8-1.098 1.357-1.364 0 0-.138-5.294 1.633-6.272 2.02-1.116 6.503 3.395 9.757 6.67 2.594 2.612 5.007 5.041 7.314 8.991 2.093 3.585 3.52 5.859 3.52 5.859s1.188-3.865 1.363-7.771c.036-.81-.943-6.816-.943-6.816s-.633.467-1.764.684"/></g><g transform="rotate(-32 31 54)"><path fill="#020202" d="M33.61 116.927a7.491 7.491 0 0 0 7.497 7.504c4.145-.003 7.508-3.369 7.511-7.517a7.491 7.491 0 0 0-7.497-7.504c-4.145.004-7.507 3.37-7.511 7.517"/></g><g transform="rotate(-32 142 114.5)"><path fill="#020202" d="M153.888 47.464a7.491 7.491 0 0 0-7.497-7.504c-4.145.004-7.507 3.37-7.511 7.517a7.491 7.491 0 0 0 7.497 7.504c4.145-.003 7.508-3.369 7.511-7.517"/></g></g></g></svg>