<svg xmlns="http://www.w3.org/2000/svg" width="184" height="30" viewBox="0 0 184 30"><defs><clipPath id="v3wda"><path d="M99.32 18.95h47.704V29.7H99.32z"/></clipPath><clipPath id="v3wdb"><path d="M125.48 0h14.583v17.435H125.48z"/></clipPath><clipPath id="v3wdc"><path d="M85.49 0h14.583v17.435H85.49z"/></clipPath></defs><g><g><g><g/><g clip-path="url(#v3wda)"><path fill="#f49c10" d="M146.602 23.226c-5.727 4.226-14.03 6.474-21.179 6.474-10.02 0-19.044-3.704-25.872-9.87-.536-.484-.058-1.145.587-.77 7.366 4.287 16.477 6.868 25.886 6.868 6.348 0 13.325-1.317 19.745-4.04.97-.41 1.78.638.833 1.338"/></g></g><g><path fill="#f49c10" d="M148.993 20.506c-.733-.937-4.842-.444-6.688-.223-.56.067-.646-.422-.142-.776 3.278-2.302 8.65-1.637 9.274-.866.629.777-.165 6.163-3.237 8.733-.473.395-.922.184-.713-.338.692-1.726 2.239-5.592 1.506-6.53"/></g><g><path fill="#23293a" d="M142.462 3.245V1.008a.553.553 0 0 1 .567-.567L153.057.44c.321 0 .578.234.578.565v1.919c-.003.322-.274.741-.755 1.408l-5.194 7.416c1.927-.045 3.967.245 5.719 1.229.395.222.501.551.532.873v2.388c0 .328-.36.709-.739.51-3.086-1.616-7.181-1.793-10.594.021-.35.185-.714-.19-.714-.52V13.98c0-.363.007-.984.373-1.537l6.018-8.634-5.24-.001c-.32 0-.577-.228-.579-.563"/></g><g><path fill="#23293a" d="M105.887 17.217h-3.051a.576.576 0 0 1-.546-.516l.003-15.657c0-.313.263-.563.589-.563l2.84-.001a.574.574 0 0 1 .555.526V3.05h.057c.74-1.977 2.136-2.9 4.015-2.9 1.908 0 3.104.923 3.958 2.9.741-1.977 2.421-2.9 4.215-2.9 1.282 0 2.677.527 3.532 1.713.967 1.319.769 3.229.769 4.91l-.003 9.881a.575.575 0 0 1-.589.563h-3.047a.572.572 0 0 1-.547-.562l-.001-8.301c0-.658.057-2.306-.085-2.932-.228-1.055-.912-1.351-1.794-1.351-.741 0-1.51.494-1.823 1.285-.313.791-.285 2.108-.285 2.998v8.3a.575.575 0 0 1-.588.563h-3.047a.572.572 0 0 1-.548-.562l-.003-8.301c0-1.746.285-4.316-1.879-4.316-2.193 0-2.108 2.504-2.108 4.316l-.001 8.3a.575.575 0 0 1-.588.563"/></g><g><path fill="#23293a" d="M162.263.15c4.528 0 6.977 3.888 6.977 8.83 0 4.777-2.705 8.567-6.977 8.567-4.442 0-6.863-3.889-6.863-8.732zm.028 3.196c-2.25 0-2.392 3.063-2.392 4.975 0 1.911-.028 5.996 2.364 5.996 2.364 0 2.477-3.295 2.477-5.304 0-1.317-.056-2.899-.456-4.151z"/></g><g><path fill="#23293a" d="M175.112 17.217h-3.04a.573.573 0 0 1-.547-.562L171.52.991a.577.577 0 0 1 .586-.51l2.83-.001a.58.58 0 0 1 .542.438v2.395h.057c.855-2.142 2.05-3.163 4.158-3.163 1.366 0 2.705.494 3.56 1.845.797 1.252.797 3.361.797 4.876v9.853a.578.578 0 0 1-.585.493h-3.058a.576.576 0 0 1-.543-.493V8.223c0-1.714.2-4.218-1.908-4.218-.74 0-1.424.494-1.766 1.252-.427.956-.484 1.911-.484 2.966v8.431a.584.584 0 0 1-.594.563"/></g><g><g/><g clip-path="url(#v3wdb)"><path fill="#23293a" d="M134.47 9.745c0 1.188.028 2.176-.571 3.232-.485.857-1.256 1.385-2.112 1.385-1.17 0-1.855-.89-1.855-2.21 0-2.594 2.331-3.066 4.538-3.066zm3.082 7.45a135.24 135.24 0 0 1 2.34-2.027c.248-.203.205-.533.01-.812-.558-.77-1.152-1.397-1.152-2.827V6.774c0-2.016.144-3.866-1.341-5.254C136.239.395 134.298 0 132.814 0c-2.903 0-6.142 1.084-6.822 4.673-.072.382.205.582.455.638l2.957.321c.277-.014.477-.286.53-.561.255-1.237 1.289-1.833 2.452-1.833.628 0 1.341.231 1.713.792.428.629.371 1.487.371 2.215v.396c-1.77.198-4.082.33-5.737 1.057-1.912.826-3.253 2.51-3.253 4.99 0 3.17 1.998 4.757 4.566 4.757 2.169 0 3.355-.512 5.03-2.22.554.803.736 1.192 1.748 2.035.228.122.519.11.721-.071z"/></g></g><g><g/><g clip-path="url(#v3wdc)"><path fill="#23293a" d="M94.479 9.745c0 1.188.029 2.176-.57 3.232-.485.857-1.256 1.385-2.112 1.385-1.17 0-1.855-.89-1.855-2.21 0-2.594 2.331-3.066 4.537-3.066zm3.083 7.45c.609-.542 1.717-1.504 2.34-2.027.248-.203.204-.533.009-.812-.557-.77-1.15-1.397-1.15-2.827V6.774c0-2.016.142-3.866-1.342-5.254C96.249.395 94.308 0 92.824 0c-2.904 0-6.143 1.084-6.822 4.673-.072.382.205.582.455.638l2.957.321c.277-.014.477-.286.53-.561.254-1.237 1.289-1.833 2.452-1.833.628 0 1.341.231 1.713.792.427.629.37 1.487.37 2.215v.396c-1.769.198-4.081.33-5.736 1.057-1.912.826-3.253 2.51-3.253 4.99 0 3.17 1.998 4.757 4.566 4.757 2.169 0 3.354-.512 5.03-2.22.553.803.735 1.192 1.748 2.035.228.122.519.11.721-.071z"/></g></g><g><path fill="#23293a" d="M2.366 14.414c-.718 0-1.292-.204-1.721-.614-.43-.41-.645-.958-.645-1.646 0-.737.263-1.327.789-1.767.525-.44 1.233-.659 2.123-.659.566 0 1.203.086 1.911.257v-1c0-.546-.124-.931-.371-1.153-.248-.223-.67-.334-1.267-.334-.698 0-1.38.101-2.047.303-.233.071-.38.107-.44.107-.122 0-.182-.091-.182-.274v-.409c0-.131.02-.227.06-.288a.531.531 0 0 1 .243-.167 5.09 5.09 0 0 1 1.191-.341c.48-.086.957-.129 1.433-.129.96 0 1.668.2 2.123.599.456.399.683 1.009.683 1.828v5.187c0 .202-.101.303-.303.303h-.653c-.192 0-.303-.096-.334-.288l-.075-.501a4.121 4.121 0 0 1-1.206.728zm.364-1.137c.333 0 .683-.066 1.047-.197a3.995 3.995 0 0 0 1.046-.576v-1.548a6.878 6.878 0 0 0-1.608-.197c-1.142 0-1.714.44-1.714 1.319 0 .385.106.681.319.888z"/></g><g><path fill="#23293a" d="M10.677 14.22c-.142 0-.246-.021-.311-.061-.066-.04-.134-.156-.205-.349L7.476 7.076a2.687 2.687 0 0 0-.068-.182.443.443 0 0 1-.038-.167c0-.131.076-.197.228-.197h.894c.152 0 .258.02.319.06.061.041.126.157.197.349l2.078 5.915 2.078-5.915c.071-.192.137-.308.198-.349.06-.04.166-.06.318-.06h.834c.152 0 .227.066.227.197a.425.425 0 0 1-.038.167 3.359 3.359 0 0 0-.068.182l-2.669 6.734c-.071.193-.139.309-.205.349a.616.616 0 0 1-.311.061z"/></g><g><path fill="#23293a" d="M17.916 14.414c-.719 0-1.292-.204-1.722-.614-.43-.41-.644-.958-.644-1.646 0-.737.262-1.327.788-1.767.526-.44 1.234-.659 2.124-.659.566 0 1.203.086 1.911.257v-1c0-.546-.124-.931-.372-1.153-.248-.223-.67-.334-1.266-.334a7.03 7.03 0 0 0-2.048.303c-.233.071-.379.107-.44.107-.121 0-.182-.091-.182-.274v-.409c0-.131.02-.227.061-.288.04-.061.121-.117.242-.167a5.12 5.12 0 0 1 1.191-.341c.48-.086.958-.129 1.433-.129.961 0 1.669.2 2.124.599.455.399.683 1.009.683 1.828v5.187c0 .202-.102.303-.304.303h-.652c-.192 0-.303-.096-.334-.288l-.076-.501a4.116 4.116 0 0 1-1.205.728zm.364-1.137c.333 0 .682-.066 1.046-.197a4 4 0 0 0 1.047-.576v-1.548a6.878 6.878 0 0 0-1.608-.197c-1.143 0-1.714.44-1.714 1.319 0 .385.106.681.318.888z"/></g><g><path fill="#23293a" d="M24.681 5.16c.293 0 .523-.084.69-.251.166-.166.25-.386.25-.659s-.084-.493-.25-.66c-.167-.167-.397-.25-.69-.25-.294 0-.524.083-.691.25-.166.167-.25.387-.25.66s.084.493.25.659c.167.167.397.251.691.251zm.439 9.055c.203 0 .304-.101.304-.304V6.828c0-.202-.101-.303-.304-.303h-.895c-.202 0-.303.101-.303.303v7.083c0 .203.101.304.303.304z"/></g><g><path fill="#23293a" d="M29.193 14.289c-.536 0-.946-.154-1.229-.462-.283-.309-.424-.751-.424-1.327V3.293c0-.202.1-.303.303-.303h.894c.203 0 .304.101.304.303v9.116c0 .232.048.402.144.508.096.106.256.159.478.159.061 0 .124-.005.19-.015.065-.01.123-.015.174-.015.101 0 .169.025.205.075a.404.404 0 0 1 .053.228v.485c0 .101-.023.18-.069.236a.45.45 0 0 1-.234.128 3.355 3.355 0 0 1-.789.091"/></g><g><path fill="#23293a" d="M33.806 14.414c-.719 0-1.292-.204-1.722-.614-.43-.41-.644-.958-.644-1.646 0-.737.262-1.327.788-1.767.526-.44 1.234-.659 2.124-.659.566 0 1.203.086 1.911.257v-1c0-.546-.124-.931-.372-1.153-.248-.223-.67-.334-1.266-.334a7.03 7.03 0 0 0-2.048.303c-.233.071-.379.107-.44.107-.121 0-.182-.091-.182-.274v-.409c0-.131.02-.227.061-.288.04-.061.121-.117.242-.167a5.12 5.12 0 0 1 1.191-.341c.48-.086.958-.129 1.433-.129.961 0 1.669.2 2.124.599.455.399.683 1.009.683 1.828v5.187c0 .202-.102.303-.304.303h-.652c-.192 0-.303-.096-.334-.288l-.076-.501a4.108 4.108 0 0 1-1.206.728zm.364-1.137c.333 0 .682-.066 1.046-.197a4 4 0 0 0 1.047-.576v-1.548a6.885 6.885 0 0 0-1.608-.197c-1.143 0-1.714.44-1.714 1.319 0 .385.106.681.318.888z"/></g><g><path fill="#23293a" d="M43.642 14.381c-.931 0-1.745-.323-2.442-.971l-.107.501c-.029.202-.146.303-.348.303h-.652c-.203 0-.303-.101-.303-.303V3.293c0-.201.1-.303.303-.303h.894c.202 0 .304.102.304.303v3.959c.758-.637 1.577-.955 2.457-.955.981 0 1.754.353 2.32 1.061.567.708.85 1.679.85 2.913 0 1.243-.298 2.24-.895 2.988zm-.349-1.213c1.396 0 2.093-.94 2.093-2.821 0-.961-.17-1.674-.508-2.139-.339-.465-.857-.698-1.555-.698-.718 0-1.395.233-2.032.698v4.231z"/></g><g><path fill="#23293a" d="M50.313 14.289c-.536 0-.946-.154-1.229-.462-.283-.309-.424-.751-.424-1.327V3.293c0-.202.101-.303.303-.303h.895c.202 0 .303.101.303.303v9.116c0 .232.048.402.144.508.096.106.256.159.478.159.061 0 .124-.005.19-.015a1.18 1.18 0 0 1 .174-.015c.102 0 .169.025.205.075a.404.404 0 0 1 .053.228v.485c0 .101-.023.18-.068.236a.449.449 0 0 1-.235.128 3.355 3.355 0 0 1-.789.091"/></g><g><path fill="#23293a" d="M53.316 13.422c-.638-.688-.956-1.705-.956-3.053 0-1.285.318-2.285.956-2.999.636-.714 1.527-1.07 2.669-1.07.961 0 1.699.27 2.214.812.516.543.774 1.309.774 2.3 0 .325-.025.655-.076.988-.02.122-.053.202-.098.242-.046.041-.12.061-.221.061h-4.762c.02.871.235 1.514.645 1.929.409.415 1.044.623 1.903.623.304 0 .594-.02.873-.06a7.283 7.283 0 0 0 1.054-.259l.181-.053a.495.495 0 0 1 .137-.023c.131 0 .197.092.197.273v.426c0 .132-.02.225-.061.28-.04.056-.126.115-.257.175a5.294 5.294 0 0 1-1.085.319 6.658 6.658 0 0 1-1.267.122c-1.243 0-2.184-.344-2.82-1.033zm4.275-3.725c.01-.081.015-.212.015-.394 0-.617-.144-1.082-.432-1.395-.288-.314-.71-.471-1.265-.471-.636 0-1.13.19-1.484.569-.354.379-.557.943-.607 1.691z"/></g><g><path fill="#23293a" d="M66.636 14.414c-.718 0-1.292-.204-1.721-.614-.43-.41-.645-.958-.645-1.646 0-.737.263-1.327.789-1.767.525-.44 1.233-.659 2.123-.659.566 0 1.203.086 1.911.257v-1c0-.546-.124-.931-.372-1.153-.247-.223-.67-.334-1.266-.334-.698 0-1.38.101-2.048.303-.232.071-.379.107-.439.107-.122 0-.182-.091-.182-.274v-.409c0-.131.02-.227.06-.288.04-.061.122-.117.243-.167a5.09 5.09 0 0 1 1.191-.341c.48-.086.957-.129 1.433-.129.96 0 1.668.2 2.123.599.456.399.683 1.009.683 1.828v5.187c0 .202-.102.303-.303.303h-.653c-.192 0-.303-.096-.334-.288l-.075-.501a4.121 4.121 0 0 1-1.206.728zM67 13.277c.333 0 .683-.066 1.046-.197a3.985 3.985 0 0 0 1.047-.576v-1.548a6.878 6.878 0 0 0-1.608-.197c-1.142 0-1.714.44-1.714 1.319 0 .385.106.681.319.888z"/></g><g><path fill="#23293a" d="M75.329 14.32c-1.436 0-2.154-.718-2.154-2.154V7.707h-1.092c-.202 0-.303-.101-.303-.303v-.38c0-.1.023-.176.068-.227.045-.05.134-.086.265-.106l1.108-.137.197-1.88c.02-.203.126-.304.318-.304h.637c.203 0 .304.101.304.304v1.85h1.971c.202 0 .304.101.304.303v.577c0 .202-.102.303-.304.303h-1.971v4.384c0 .374.083.637.25.788.167.152.452.228.857.228.191 0 .429-.026.712-.076a1.98 1.98 0 0 1 .304-.045c.081 0 .136.022.167.067.03.046.046.12.046.221v.409c0 .132-.021.23-.061.296-.041.066-.122.119-.243.159a4.72 4.72 0 0 1-1.38.182"/></g></g></g></svg>